<svg xmlns="http://www.w3.org/2000/svg" xmlns:xlink="http://www.w3.org/1999/xlink" width="115.488" height="115.481" viewBox="0 0 115.488 115.481">
  <defs>
    <clipPath id="clip-path">
      <rect id="Rectangle_238" data-name="Rectangle 238" width="115.488" height="115.481" fill="#007176"/>
    </clipPath>
  </defs>
  <g id="Group_296" data-name="Group 296" clip-path="url(#clip-path)">
    <path id="Path_12039" data-name="Path 12039" d="M173.691,0a1.264,1.264,0,0,1-1.162.2.271.271,0,0,0,.035-.2Z" transform="translate(-133.529)" fill="#007176"/>
    <path id="Path_12040" data-name="Path 12040" d="M185.81.2a1.259,1.259,0,0,1-1.155-.2h1.128a.171.171,0,0,0,.027.2" transform="translate(-142.914)" fill="#007176"/>
    <path id="Path_12041" data-name="Path 12041" d="M510.213,380.567c-.3-.15-.231-.3,0-.451Z" transform="translate(-394.725 -294.191)" fill="#007176"/>
    <path id="Path_12042" data-name="Path 12042" d="M90.424,170.328q11.783,0,23.566,0c1.726,0,2.746.8,2.874,2.2A2.412,2.412,0,0,1,114.7,175.1a8.857,8.857,0,0,1-1.014.02H67.119c-.226,0-.451.007-.677,0a2.437,2.437,0,0,1-2.486-2.384,2.358,2.358,0,0,1,2.45-2.392c1.879-.038,3.759-.013,5.638-.013H90.424" transform="translate(-49.499 -131.82)" fill="#007176"/>
    <path id="Path_12043" data-name="Path 12043" d="M83.233,234.183q7.949,0,15.9,0c.375,0,.753-.009,1.126.026a2.38,2.38,0,0,1,2.188,2.311,2.434,2.434,0,0,1-2.086,2.426,5.351,5.351,0,0,1-.788.028q-16.349,0-32.7,0a6.021,6.021,0,0,1-.788-.022,2.424,2.424,0,0,1-2.122-2.5,2.313,2.313,0,0,1,2.245-2.24c1.576-.058,3.156-.028,4.735-.029q6.145,0,12.29,0" transform="translate(-49.502 -181.241)" fill="#007176"/>
    <path id="Path_12044" data-name="Path 12044" d="M78.216,302.824q-5.856,0-11.712,0a2.437,2.437,0,0,1-2.319-1.308,2.23,2.23,0,0,1,.088-2.355,2.542,2.542,0,0,1,2.411-1.139c5.03.016,10.06.007,15.09.007,2.74,0,5.481-.01,8.221,0,1.709.009,2.791.972,2.768,2.417s-1.124,2.366-2.835,2.369q-5.856.01-11.712,0" transform="translate(-49.448 -230.656)" fill="#007176"/>
    <path id="Path_12045" data-name="Path 12045" d="M81.81,26.529A11.975,11.975,0,0,0,72.5,14.758c-2.591-.615-5.24-.259-7.862-.316-2.06-.044-2.061-.009-2.09-2-.029-1.966-.848-2.782-2.837-2.794-2.029-.012-4.059-.026-6.088.011-.665.012-.923-.16-1.144-.857A11.731,11.731,0,0,0,42.9.2c-.358-.224-.806.07-1.155-.2H40.163c-.353.269-.8-.017-1.162.2a11.705,11.705,0,0,0-9.627,8.539c-.228.713-.484.937-1.209.922-2.141-.046-4.285-.038-6.426,0a2.374,2.374,0,0,0-2.48,2.259c-.113.832.412,2-.26,2.417-.657.4-1.75.081-2.651.106-2.359.068-4.74-.245-7.072.332A11.986,11.986,0,0,0,.025,26.692Q0,48,.02,69.311C.02,76-.04,82.691.048,89.379a11.849,11.849,0,0,0,11.492,11.613c11.349.106,22.7.038,34.049.041a2.962,2.962,0,0,0,.562-.038A2.386,2.386,0,0,0,48.1,98.583c-.023-1.513-1.047-2.337-2.942-2.338q-16.179-.005-32.358,0a9.708,9.708,0,0,1-2.677-.3C6.775,95,4.813,92.2,4.813,88.363q0-30.611,0-61.221c0-.225,0-.451,0-.676a7.253,7.253,0,0,1,7.268-7.229c1.577-.045,3.157-.01,4.735-.01,2.355,0,2.355,0,2.428,2.354a7.217,7.217,0,0,0,7.208,7.274q14.488.047,28.976,0a7.125,7.125,0,0,0,6.9-5.437,11.012,11.012,0,0,0,.2-3.247c-.022-.725.167-.984.933-.961,1.878.054,3.758.015,5.637.018,4.9.007,7.872,2.953,7.88,7.835.008,4.472-.008,8.945.007,13.417.006,1.722.958,2.807,2.4,2.816s2.428-1.07,2.434-2.784c.017-4.66.072-9.322-.012-13.98M57.769,15.357c-.045,1.953-.008,3.907-.017,5.861-.009,1.905-.917,2.845-2.823,2.852-4.659.017-9.318.005-13.976.005q-6.875,0-13.751,0c-2.305,0-3.1-.806-3.106-3.123,0-1.84.057-3.683-.026-5.52-.04-.893.267-1.042,1.067-1.016,1.839.059,3.681.021,5.522.018,2.1,0,2.846-.666,3.039-2.74a7.043,7.043,0,0,1,4.62-6.368,6.837,6.837,0,0,1,7.355,1.3,6.811,6.811,0,0,1,2.419,4.908c.137,2.152.949,2.893,3.144,2.9,1.878,0,3.759.043,5.635-.02.777-.026.916.244.9.944" transform="translate(0)" fill="#007176"/>
    <path id="Path_12046" data-name="Path 12046" d="M328,319.458a2.189,2.189,0,0,0-2.612.352,16.471,16.471,0,0,0-1.3,1.409q-6.756,7.715-13.494,15.446c-.491.566-.747.558-1.259.033-2.229-2.287-4.5-4.529-6.762-6.788a3.089,3.089,0,0,0-1.58-1.019,2.4,2.4,0,0,0-2.6,1.159,2.43,2.43,0,0,0,.5,2.983q4.642,4.684,9.325,9.326c1.317,1.3,2.687,1.2,3.973-.262q8.176-9.318,16.335-18.652a2.5,2.5,0,0,0,.784-1.72A2.291,2.291,0,0,0,328,319.458" transform="translate(-230.712 -247.029)" fill="#007176"/>
    <path id="Path_12047" data-name="Path 12047" d="M296.742,262.071c-.361-.121-.207-.439-.235-.669A31.323,31.323,0,1,0,295.9,272.5a25.021,25.021,0,0,1,.843-3.885v-1.128a.292.292,0,0,1,0-.451Zm-30.541,29.7a26.65,26.65,0,0,1-27.173-25.15c-.595-14.676,10.687-27.162,25.085-27.762a26.478,26.478,0,1,1,2.087,52.912" transform="translate(-181.254 -181.108)" fill="#007176"/>
  </g>
</svg>
