<svg id="Group_314" data-name="Group 314" xmlns="http://www.w3.org/2000/svg" xmlns:xlink="http://www.w3.org/1999/xlink" width="731.529" height="634.008" viewBox="0 0 731.529 634.008">
  <defs>
    <clipPath id="clip-path">
      <rect id="Rectangle_242" data-name="Rectangle 242" width="731.529" height="634.008" fill="none"/>
    </clipPath>
  </defs>
  <g id="Group_313" data-name="Group 313" clip-path="url(#clip-path)">
    <path id="Path_12068" data-name="Path 12068" d="M146.685,211.469c4.741,2.174,9.567,6.21,14.2,6s9.5-3.625,14.417-5.229c17.775-5.793,35.349-12.294,53.93-15.259,7.333-1.17,14.7-2.055,22.056-2.533.484-.8-.154-1.143-.5-1.57-14.7-18.063-12.838-38.023,5.154-52.965,5.514-4.579,11.615-8.455,17.113-13.05,8.61-7.2,12.382-17.553,16.912-27.341,3.926-8.483,7.442-17.161,12.332-25.169.822-1.346,1.7-2.662,2.64-3.931,4.539-6.144,10.126-9.427,17.939-6.4,2.575,1,3.688.567,4.665-2.5,2.993-9.4,8.8-17.31,14.938-24.861C358.215,17.287,377.687,4.039,403.008.737c.507-.066.939-.158,1.062-.738h2.924a20.878,20.878,0,0,0,8.774,0h2.193c8.377.579,16.6,1.823,24.478,4.959,2.6,1.035,5.174,2.132,7.779,3.152,7.536,2.951,15.491,2.921,23.356,3.236a108.848,108.848,0,0,1,24.441,3.877c9.133,2.493,16.311,8.191,22.917,14.459,6.79,6.44,14.025,12.441,20.241,19.48a4.95,4.95,0,0,0,3.89,1.687c13.063.037,25.888,2.51,38.822,3.84,14.036,1.444,28.046,3.17,41.938,5.707a20.153,20.153,0,0,1,5.3,1.277c.907,3.271-1.721,4.032-3.723,5.244-10.865-1.354-21.6-3.622-32.492-4.8-15.127-1.637-30.1-4.474-45.27-5.746-.937-.079-1.9-.451-3.167.383,2.262,4.016,3.376,8.554,5.575,12.559,2.925,5.33,14.241,5.716,18.893.9a32.516,32.516,0,0,1,3.468-3.743c3.8-2.873,8.141-1.8,9.641,2.723.876,2.643,2.349,3.591,4.956,3.861q21.794,2.254,43.427,5.762c1.968.318,4.211.062,5.74,1.855.08,1.232-.725,1.856-1.642,2.405a6.74,6.74,0,0,1-3.95.108c-14.49-2.723-29.115-4.544-43.715-6.527-4.017-.545-4.478-.312-5.236,3.562a48.423,48.423,0,0,1-4.78,12.589c-1.295,2.55-.827,3.214,1.96,3.376a10.3,10.3,0,0,0,5.531-1.6c2.082-1.117,4.25-2.2,6.345-.067,2.067,2.108,1.465,4.472.4,6.783-1.69,3.659-4.749,6.109-7.73,8.63-4.386,3.708-4.216,3.67-2.306,9.245,3.386,9.88,7.658,19.467,8.706,30.086,1.22,12.371.032,24.538-1.968,36.695-.995,6.045-1.053,6.446,4.828,6.961,13.021,1.141,24.616,6.611,36.5,11.276,3.628,1.424,7.226,2.921,10.88,4.283,2.258.841,3.437.153,3.852-2.228,2.8-16.072,6.065-32.069,7.964-48.288.5-4.3.463-4.22,4.67-4.752,5.842-.738,11.19-3.269,16.726-5.112,4.363-1.452,8.31-4.1,13.032-4.525,1.238.528,2.09,1.311,1.845,2.81a5.374,5.374,0,0,1-3.224,2.231c-8.016,2.9-15.959,6.08-24.3,7.912-3.507.771-4.76,2.542-5.152,5.869-3.033,25.77-7.528,51.311-12.636,76.735-4.533,22.563-9.545,45.029-17.21,66.8-1,2.84-.624,3.331,2.4,2.559,9.475-2.412,18.361-6.461,27.414-10.048,5.871-2.325,11.324-5.683,17.562-7.108a3.334,3.334,0,0,1,2.76,2.9c-.628,1.365-2,1.725-3.2,2.244a340.662,340.662,0,0,1-41.058,15.205,40.117,40.117,0,0,1-4.987,1.11c-5.128.789-7.25-1.56-5.736-6.457,1.365-4.417,2.938-8.769,4.153-13.235,1.919-7.047,3.53-14.171,5.394-21.23.707-2.677-.078-4.036-2.76-4.825-4.2-1.239-8.354-2.641-12.559-3.875-3.754-1.1-4.145-.946-4.708,2.979q-2.309,16.076-4.6,32.154-3.522,24.754-7.079,49.5c-.654,4.51-.561,4.309,3.754,5.747,5.757,1.918,11.329.112,16.751-.837,14.057-2.462,27.494-7.335,40.926-12.074,4.933-1.74,9.766-3.818,14.757-5.34,4.9-1.493,8.549-3.863,9.832-9.055.714-.721,1.35-.339,1.978.139,1.121,1.2.252,2.659.444,4,1.208-.046,2.307-.847,3.473-.168,1.017.755,1.748,1.633,1.319,3.018a5.168,5.168,0,0,1-2.964,1.993c-23.078,8.492-46.323,16.434-70.534,21.145-2.269.441-3.681,1.083-3.538,3.96.447,8.958,1.06,17.872.662,26.917-.508,11.526-.993,23.061-1.829,34.564-1.119,15.392-2.627,30.76-4.642,46.067-1.238,9.4-1.711,18.888-3.216,28.258-.211,1.313-.228,2.69-1.28,3.712-2.142.994-2.943-.695-3.954-1.969-.754-5.39.86-10.6,1.288-15.909.645-8,1.488-15.978,1.863-24a100.391,100.391,0,0,1,1.452-14.505c.843-4.333-.518-8.481-1.17-12.651a92.028,92.028,0,0,0-8.474-25.949c-15.242-31.452-35.493-59.551-57.3-86.679-7.773-9.671-17.349-17.378-26.071-26.012a2.438,2.438,0,0,0-3.808-.135c-5.723,4.923-11.5,9.788-17.172,14.765-1.607,1.41-1.785,3.35-1.818,5.356-.061,3.771.3,7.559-.278,11.312-2.064,13.291-10.005,21.8-22.012,27.01-3.952,1.714-4.1,2.019-2.226,5.9,6.571,13.621,14.654,26.405,22.034,39.578,9.406,16.788,19.22,33.344,28.7,50.091a8.671,8.671,0,0,0,1.66,2.356c1.491-.328,1.41-1.641,1.714-2.579,1.8-5.559,3.252-11.236,5.528-16.636a3.823,3.823,0,0,0-1.472-5.093c-1.284-.926-2.325-2.288-3.755-2.886-3.963-1.657-4.864-4.9-5.4-8.725-2.042-14.462-3.786-28.957-5.091-43.5a50.4,50.4,0,0,1-.01-8.032c.119-1.7.711-3.266,2.736-3.229s2.585,1.654,2.648,3.328c.186,4.862.253,9.713.744,14.575,1.284,12.721,2.967,25.387,4.721,38.046a7.767,7.767,0,0,0,3.2,5.486c17.215,12.8,33.465,26.786,49.894,40.553,2.524,2.115,5.218,4,7.84,5.988,1.509,1.143,2.441,1.4,2.722-1.1A224.134,224.134,0,0,0,586.351,438a144.486,144.486,0,0,0-6.008-40.329c-.414-1.387-1.034-2.766-.485-4.272a1.838,1.838,0,0,1,1.9-1.064c1.474.763,1.729,2.258,2.17,3.638a143.3,143.3,0,0,1,6.743,51.482q-.52,10-1.536,19.992c-.411,4.018-3.269,5.483-6.694,3.339-2.493-1.561-3.372-1.077-4.355,1.6-4.728,12.848-12.336,23.967-21.11,34.36-4.408,5.221-8.952,10.316-14.515,14.333-11.434,8.254-31.674,13.634-46.218.273a64.155,64.155,0,0,1-10.916-13.165c-6.772-10.749-11.917-22.333-17.08-33.889-15.451-34.584-29.09-69.906-42.625-105.267a4.822,4.822,0,0,0-4.492-3.514c-2.348-.258-3.67.794-4.726,2.618-1.1,1.9-2.378,3.689-3.358,5.65-9.8,19.6-19.538,39.231-27.629,59.618a188.541,188.541,0,0,0-7.728,24.339c-.91,3.677.2,5.819,3.128,7.994q18.037,13.387,35.8,27.147c1.228.955,2.723,1.688,3.187,3.38a2.827,2.827,0,0,1-2.678,2.75c-1.83-.1-3.116-1.29-4.46-2.315q-19.164-14.618-38.422-29.112c-2.591-1.95-3.319-4.06-2.714-7.22,2.885-15.069,8.608-29.149,14.715-43.1,5.027-11.485,10.523-22.752,15.913-34.068,1.453-3.051.971-3.636-2.345-3.418a521.437,521.437,0,0,0-55.427,6.392c-28.35,4.944-56.3,11.443-83.593,20.635-3.3,1.113-6.563,2.645-10.214,2.369a1.219,1.219,0,0,1-.886-1.347c3.787-2.842,8.358-3.876,12.728-5.24,15.111-4.717,30.064-9.928,45.505-13.6a476.1,476.1,0,0,1,64.762-11.138c9.556-.914,19.161-1.544,28.774-1.591,2.917-.015,4.833-.9,6.047-3.631a48.2,48.2,0,0,1,4.461-7.541c1.5-2.189.878-3.159-1.564-3.764-7.918-1.963-15.909-3.743-23.1-7.866A74.067,74.067,0,0,1,370.7,341a23.94,23.94,0,0,1-4.986-8.865,3.946,3.946,0,0,0-4.084-2.935c-23.853-.3-38.451-13.463-47.532-34.258a70.96,70.96,0,0,1-3.234-8.928,6.969,6.969,0,0,0-4.816-4.978c-4.363-1.563-8.6-3.466-11.995-6.787-4.38-4.284-6.529-9.136-4.909-15.475,1.984-7.763,5.286-14.628,11.528-19.843a5.067,5.067,0,0,0,2.2-4,184.009,184.009,0,0,1,.743-19.69c.181-1.793.108-3.536-2.693-2.845-15.415,3.807-28.882-1-41.228-9.832-3.271-2.341-6.4-2.8-10.226-2.5a216.1,216.1,0,0,0-38.828,6.664c-14.137,3.763-27.718,9.24-42.476,13.522,9.073,4.24,17.554,8,26.049,11.728,13.5,5.927,27.065,11.68,41,16.529a149.434,149.434,0,0,0,16.811,4.959c1.531.338,3.159.43,4.42,1.556.133,1.462-1.031,1.446-1.946,1.717-7.071.049-13.626-2.417-20.192-4.508a556.271,556.271,0,0,1-61.391-24.184c-7.86-3.574-15.434-7.74-23.407-11.071-1.647-.688-3.442-1.305-4.5-2.96-.339-1.439.365-2.193,1.677-2.547" transform="translate(-38.838 0)" fill="#2b2d43"/>
    <path id="Path_12069" data-name="Path 12069" d="M511.714,0a11.568,11.568,0,0,1-8.774,0Z" transform="translate(-134.783)" fill="#7e7f8c"/>
    <path id="Path_12070" data-name="Path 12070" d="M998.214,168.679a.51.51,0,0,1,.578.045v3.655l-.282.112-.3-.067a2.347,2.347,0,0,1,0-3.746" transform="translate(-267.262 -45.186)" fill="#c8c9cf"/>
    <path id="Path_12071" data-name="Path 12071" d="M403.9,662.427a4.519,4.519,0,0,0,2.261-2.225c2.53-.359,3.907,1.661,5.7,2.793,1.228.775,2.288,1.8,3.936,2.739a55.477,55.477,0,0,0,.658-17.768c-.131-1.367-1.211-2.363-2.085-3.375-7.076-8.2-10.423-18.363-14.773-28-.384-.852-.842-1.939.372-2.539.937-.463,1.6.282,2.18.9a26.167,26.167,0,0,1,2.905,4.2c4.026,6.471,7.619,13.194,11.539,19.793-.007-7.693-.884-15.271-1.458-22.869-.133-1.763-.891-4.421,1.406-4.6,2.126-.168,2,2.658,2.23,4.357a231.6,231.6,0,0,1,2.367,34.205c-.15,10.108.016,20.22-.045,30.329a130.483,130.483,0,0,1-3.922,32.182,95,95,0,0,0-1.534,9.728c-.411,2.7.695,3.944,3.276,4.044,7.3.28,14.568,1.371,21.846,1.435,14.246.124,28.493.154,42.718.891q19.311,1,38.6,2.5c21.249,1.68,42.337,4.773,63.542,6.784,4.582.434,9.2.88,13.836.937,3,.038,4.861-1.168,5.809-3.947.157-.46-.025.119.134-.34a174.385,174.385,0,0,0,8.739-43.913c.32-4.157-.32-4.4-4.393-3.5-7.132,1.592-14.127,3.766-21.348,4.981-5.21.877-6.666-.631-5.235-5.69A198.636,198.636,0,0,0,587.8,665.8c.263-1.539.332-3.2,1.943-4.122l2.819,2.192c1.283,1.218.831,2.7.555,4.105-.935,4.77-1.815,9.55-2.994,14.271-.9,3.595-.721,3.653,3.045,2.987,16.781-2.966,32.411-9.358,47.963-16,11.066-4.724,22.137-9.435,32.85-14.935a6.756,6.756,0,0,1,3.1-.992,2.408,2.408,0,0,1,2.012,1.891c-13.06,7.536-26.82,13.624-40.666,19.518-5.587,2.378-11.291,4.484-16.96,6.668-1.172.452-2.274.7-2.031,2.413,1.508,10.616-1.329,20.8-3.214,31.069-1.733,9.442-3.452,18.9-8.223,27.84,5.876,1.259,11.642,2.435,17.379,3.738a271.217,271.217,0,0,1,35.853,11.015,19.928,19.928,0,0,1,9.58,6.975c4.634,6.509,1.577,16.928-7.075,18.7a476.763,476.763,0,0,1-49.854,7.054c-39.29,3.791-78.7,5.618-118.148,6.694-45.3,1.236-90.613,1.26-135.923.411-45.906-.861-91.8-2.135-137.667-4.2-21.643-.975-43.332-1.51-64.789-4.946-11.059-1.771-22.036-3.906-32.242-8.8-4.77-2.286-9.2-5.043-11.948-9.8-2.845-4.926-2.317-8.942,1.885-12.771,5.174-4.716,11.642-6.958,18.192-8.841a230.125,230.125,0,0,1,71.415-8.986c1.165.038,2.208.3,3.32-.739,10.423-9.712,23.238-14.814,36.633-18.76,1.28-.377,2.562-.747,3.83-1.162.171-.056.259-.36.63-.917-6.72-1.542-13.288-3.014-19.84-4.558-25.081-5.909-50.138-11.959-74.254-21.185-18.578-7.107-35.457-17.557-52.47-27.692-2.393-1.425-4.708-2.981-7.06-4.476-.113-.758.371-1.037.975-1.222,1.728-.2,3,.847,4.348,1.638,11.564,6.764,23.24,13.32,35.131,19.5,15.778,8.2,32.657,13.363,49.651,18.2,34.336,9.777,69.034,18.074,104.006,25.244,5.718,1.173,11.581,1.534,17.212,3.164a2.265,2.265,0,0,1,.835.8c-1.648,2.817-4.334,1.656-6.513,1.389-5.072-.621-10.107-1.577-15.145-2.472-9-1.6-17.951-3.418-26.9-5.257a15.411,15.411,0,0,0-7.187.289,132.248,132.248,0,0,0-30.288,11.616,42.528,42.528,0,0,0-11.569,8.8,8.915,8.915,0,0,0-2.186,3.333c-.963,3.274-2.392,6.753.435,9.672,3.317,3.424,7.74,4.179,12.176,3.126,8.076-1.919,15.68-5.31,23.424-8.238,6.95-2.627,13.812-5.489,20.718-8.233,1.861-.739,3.795-1.477,5.335.474,1.589,2.014.18,3.673-.956,5.246a84.841,84.841,0,0,0-5.445,7.779c-1.128,2-3.277,4.117-.331,6.358a5.936,5.936,0,0,0,8.5-.967,28.962,28.962,0,0,0,4.169-7.268,45.436,45.436,0,0,1,5.231-9.6,7.159,7.159,0,0,1,5.429-3.181c23.449-2.763,46.879-5.7,70.317-8.552,7.243-.882,14.464-2.072,21.766-2.444a8.213,8.213,0,0,0,5.661-2.97,66.858,66.858,0,0,0,7.174-9.673,438.584,438.584,0,0,0,22.332-39.393c1.354-2.632,1.2-4.462-1.285-6.221-2.184-1.543-4.32-3.174-6.394-4.869-.993-.812-2.368-1.427-2.162-3.1" transform="translate(-25.573 -163.868)" fill="#2b2d43"/>
    <path id="Path_12072" data-name="Path 12072" d="M282.057,671.922a1111.837,1111.837,0,0,1-143.344-34.934c-20.582-6.428-38.987-17.4-57.593-27.925q-4.585-2.595-9.177-5.176c-3.973-.928-6.981-3.662-10.358-5.667q-5.561-3.3-10.985-6.859c-1.164-.611-2.132-1.519-3.273-2.163a13.516,13.516,0,0,1-2.855-1.681,8.232,8.232,0,0,0-3.519-1.881q-.034-.794-.069-1.589a5.468,5.468,0,0,1-1.356-3.772l.042-.25c-1.247-1.26-1.261-3.032-1.891-4.549-.345-.9-.5-1.864-.936-2.736-6.693-20.986-12.361-42.262-17.57-63.646-4.24-17.4-6.336-35.225-9.082-52.91-2.222-14.315-3.911-28.706-5.767-43.073a17.125,17.125,0,0,1-.151-3.279c.129-1.009.24-2.031,1.252-2.616,2.223.191,3.237,2.007,4.449,3.457a306.192,306.192,0,0,0,88.061,72.814,390.013,390.013,0,0,0,92.175,36.177c17.1,4.344,34.479,7.388,51.817,10.6,2.275.469,4.5,1.269,6.893.924a8.722,8.722,0,0,1,4.415,1.339,5.378,5.378,0,0,1,2.973,4.653c1.264,15.977,3.4,31.855,5.543,47.731,1.607,11.923,3,23.87,5.889,35.6,3.873,15.716,8.606,31.165,13.667,46.525.516,1.565,1.536,3.11.747,4.9" transform="translate(-1.112 -109.13)" fill="#fefefe"/>
    <path id="Path_12073" data-name="Path 12073" d="M946.572,146.4v3.746a445.235,445.235,0,0,1-18.515,109.409c-1.072,3.6-2.476,7.106-3.793,10.629-2.886,7.727-8.827,12.893-15.268,17.865,10.032,5.228,19.871,10.444,29.131,16.709a14,14,0,0,1,6.065,9.69c1.788,10.059.9,20.187-.206,30.221a617.112,617.112,0,0,1-21.795,109.3c-3.118,10.449-6.17,20.987-12.429,30.17-.679,1-1.409,1.957-2.116,2.935-.788.093-1-.411-1.089-1.045a9.671,9.671,0,0,1,1.475-4.465c3.861-5.473,5.866-11.769,7.7-18.057a751.5,751.5,0,0,0,24.344-116.781c1.357-10.826,2.909-21.743.827-32.536a13.409,13.409,0,0,1-2.842,4.742,31.074,31.074,0,0,1-4.232,4.519c-11.7,9.767-25.028,16.819-38.737,23.214q-9.928,4.631-20.187,8.518c-1.428.539-2.864,1.546-4.481.456l-1.5-2.267c.561-1.81,2.275-2.05,3.686-2.655C887.6,344.3,902.649,338,916.8,329.806c6.435-3.728,12.687-7.721,17.855-13.178a12.387,12.387,0,0,0,3.05-4.49c.614-1.831.4-3.361-1.55-4.279-8.413-3.962-15.81-9.592-23.571-14.6-3.843-2.479-6.756-2.517-10.468.182-6.1,4.442-13.025,7.592-19.643,11.208a8.494,8.494,0,0,0-4.258,5.568Q873,328.28,867.586,346.285c-.4,1.308-.307,3.021-2.184,3.424l-1.315-.772c-1.22-2.359.244-4.435.855-6.512,2.878-9.772,5.647-19.577,8.62-29.321a8,8,0,0,0,.645-3.842c-4.476,1.668-8.634,3.788-12.89,5.7-2.195.985-4.271,2.96-7.06,1.8a4.906,4.906,0,0,1-2.151-2.11c.693-2.026,2.64-2.351,4.255-3.1,16.008-7.422,31.96-14.938,47.267-23.77a40.593,40.593,0,0,0,19.067-23.846c6.756-21.29,11.01-43.136,14.706-65.1,3.027-17.992,5.5-36.053,5.867-54.34a64.051,64.051,0,0,0-.933-9.064c-.2-1.673-.96-2.061-2.43-.979-21.02,15.464-45.116,24.76-69.064,34.344-1.3.519-2.67,1.381-4.115.264l-1.46-2.091c.364-1.377,1.566-1.777,2.676-2.253,18.578-7.964,37.219-15.788,55.336-24.784a10.053,10.053,0,0,0,1.959-.968c3.861-2.429,7.969-4.5,11.835-7.716-5.277-2.678-10.31-4.449-15.19-6.553-12.724-5.484-25.087-11.894-38.452-15.77q-36.642-10.63-74.1-17.945c-1.637-.319-3.746.127-4.745-1.922l3.534-3.558c18.013,2.918,35.541,7.926,53.253,12.165,24.648,5.9,47.36,16.59,70.249,26.956,3.2,1.447,6.237,3.434,10.173,3.227,1.634-.085,2.482,2.43,3.049,4.132,1.558,4.681,1.572,9.571,1.732,14.433" transform="translate(-215.621 -22.911)" fill="#2b2d43"/>
    <path id="Path_12074" data-name="Path 12074" d="M240.829,527.252c-23.628-3.878-47.118-8.413-70.051-15.41-43.276-13.2-83.439-32.52-118.834-61.059a324.767,324.767,0,0,1-47.16-47.13c-1.3.337-1.3.337-.794,2.249,2.041,19.122,5.06,38.112,7.6,57.166,4.794,35.919,14.506,70.665,24.565,105.343a6.183,6.183,0,0,1,.12,1.086c.266.691.708,1.456-.619,1.482-7.4-23.124-15.417-46.1-20.744-69.8C10.3,480.665,7.679,459.754,4.823,438.916,3.139,426.628,1.838,414.286.1,402.007c-.49-3.457.9-6.007,2.463-8.689a1.787,1.787,0,0,1,.627.884c-.171,2.724,1.008,4.784,2.755,6.852a330.33,330.33,0,0,0,25.537,27.6A308.227,308.227,0,0,0,94.615,475a452.687,452.687,0,0,0,80.641,34.088c8.24,2.631,16.622,4.76,24.925,7.177a11.168,11.168,0,0,0,3.278.586c12.1,3.028,24.415,5.1,36.483,8.259,1.154.3,2.418.372,3.309,1.344-.343,1.681-1.453,1.023-2.421.795" transform="translate(0 -105.406)" fill="#2b2d43"/>
    <path id="Path_12075" data-name="Path 12075" d="M114.874,243.235l-1.424,1.937c-1.378,1.125-2.547.111-3.651-.474-14.345-7.589-28.81-14.979-42.418-23.864-3.042-1.986-6.774-3.343-8.39-7.092a1.344,1.344,0,0,1,1.116-1.091c1.849-.017,3.164,1.167,4.557,2.106,12.251,8.256,25.444,14.807,38.583,21.465,2.372,1.2,4.036.5,5.988-.867,10.684-7.477,21.654-14.493,33.769-19.489,6.532-2.694,6.552-2.618,5.207-9.476-5.087-25.921-11.064-51.645-17.117-77.351-1.6-6.794-2.252-6.909-9.3-6.263-15.288,1.4-28.917,7.371-42.048,14.769-5.831,3.286-11.446,6.944-17.076,10.568-12.89,8.3-22.408,19.667-30.222,32.663-.936,1.556-.585,3.646-2.254,4.8-3.19-1.176-4.022-3.727-3.967-6.8a1.228,1.228,0,0,1,1.041-.335c1.884.686,2.586-.671,3.4-1.926,3.105-4.814,6.514-9.4,10.083-13.887,6.94-8.728,15.675-15.2,25.1-20.945C76.15,135.411,86.4,129.1,97.719,124.7c9.425-3.661,19.209-5.338,29.2-6.11,4.094-.317,5.259.509,6.461,4.814,3.372,12.088,6.024,24.353,8.734,36.6,3.683,16.647,7.612,33.244,10.539,50.05,1,5.754.54,6.249-4.947,8.113-9.523,3.235-18.131,8.319-26.609,13.618-3,1.872-5.894,3.9-8.824,5.871-1.314.886-2.133,1.809-.227,2.943a3.628,3.628,0,0,1,1.425,1.677l1.405.954" transform="translate(-7.027 -31.766)" fill="#2b2d43"/>
    <path id="Path_12076" data-name="Path 12076" d="M177.711,96.905c2.147,5.948,2.572,12.249,3.648,18.4,5.358,30.657,10.527,61.347,15.814,92.016,1.165,6.76,1.282,6.84-5.31,8.3-10.9,2.411-20.889,7.085-30.714,12.188-.845.265-1.1-.239-1.2-.928.84-2.331,3.093-3.012,4.957-4.022a106.263,106.263,0,0,1,25.09-9.868c4.7-1.166,4.728-1.21,3.9-5.91-5.283-30.1-10.133-60.276-15.174-90.418-.824-4.922-1.5-9.87-2.364-14.786a8.47,8.47,0,0,1,.007-3.981c.265-.58.54-1.148,1.347-.991" transform="translate(-42.864 -25.963)" fill="#2d2f45"/>
    <path id="Path_12077" data-name="Path 12077" d="M21.326,165.38c1-4.487,3.564-8.146,6.351-11.631,8.708-10.891,19.809-19.007,31.367-26.52,19.977-12.985,41.09-23.539,64.364-29.3,2.468-.611,5.018-.889,7.53-1.321.75-.229,1.484-.414,1.823.6-.719,1.4-2.147,1.494-3.419,1.774-17.061,3.754-32.712,11.113-48.07,19.092a230.572,230.572,0,0,0-35.238,22.1,101.313,101.313,0,0,0-17.557,16.958,27.723,27.723,0,0,0-4.412,7.947c-1.661,1.857-1.769,1.868-2.739.293" transform="translate(-5.715 -25.843)" fill="#2d2f45"/>
    <path id="Path_12078" data-name="Path 12078" d="M39.26,322.117c-6.169-13.716-9.741-28.2-12.4-42.913a280.089,280.089,0,0,1-4.607-38c-.1-1.615-.972-3.326.591-4.732,1.881,1.772,1.635,4.23,1.89,6.436,2.93,25.382,7.068,50.512,15.165,74.846a7.5,7.5,0,0,1,.578,3.2c-.169.633-.37,1.236-1.217,1.157" transform="translate(-5.874 -63.373)" fill="#2f3147"/>
    <path id="Path_12079" data-name="Path 12079" d="M892.154,663.266l-1.674-1.4c.231-1.438,1.474-1.843,2.526-2.385a207.3,207.3,0,0,0,27.324-16.707,4.729,4.729,0,0,1,2.982-1.2c.57.161,1,.421.8,1.129-9.7,8.333-20.593,14.815-31.957,20.564" transform="translate(-238.64 -171.935)" fill="#2b2d43"/>
    <path id="Path_12080" data-name="Path 12080" d="M3.576,388.043l-.075-.93c1.461-3.53,4.647-5.434,7.434-7.637A59.819,59.819,0,0,1,26,370.3c.68-.357.982,0,1.151.608-.251,1.343-1.3,1.982-2.358,2.56a81.17,81.17,0,0,0-18.7,13.467c-.67.668-1.4,1.371-2.516,1.1" transform="translate(-0.938 -99.2)" fill="#3a3c50"/>
    <path id="Path_12081" data-name="Path 12081" d="M67.292,657.96l21.347,13.089c-.321.279-.642.556-.963.835-7.317-3.993-14.249-8.606-21.192-13.2-.1-.657-.005-1.089.808-.727" transform="translate(-17.808 -176.292)" fill="#3e4054"/>
    <path id="Path_12082" data-name="Path 12082" d="M21.118,190.363c1.381,1.77,1.608-.128,2.249-.708,1.2,1.108,1,2.433.6,3.793-1.048,1.491-.788,3.2-.9,4.883-.288,4.167.911,8.444-.886,12.5-1.023.408-1.208-.271-1.244-1.017-.063-1.282-.02-2.566-.024-3.847q0-3.2,0-6.391c-.121-2.036.258-4.093-.226-6.117-.129-1.072-.347-2.156.439-3.1" transform="translate(-5.507 -50.826)" fill="#8e8f9a"/>
    <path id="Path_12083" data-name="Path 12083" d="M157.033,274.649l.9.8-8.819,5.823c-.7.291-.981-.133-1.173-.7,2.194-3.257,5.08-5.455,9.092-5.925" transform="translate(-39.647 -73.603)" fill="#3f4054"/>
    <path id="Path_12084" data-name="Path 12084" d="M936.1,640.415l-.877-.811a10.005,10.005,0,0,1,6.694-6.567l.737.781a24.559,24.559,0,0,1-6.554,6.6" transform="translate(-250.632 -169.648)" fill="#494a5d"/>
    <path id="Path_12085" data-name="Path 12085" d="M45.471,364.429c.784-1.312,3.55-.512,3.215-3.016a1.19,1.19,0,0,1,.992-.174c1.241,1.076,2.329,2.211,1.513,4.055a12.623,12.623,0,0,1-5.62.042.624.624,0,0,1-.243-.586c.038-.215.086-.321.143-.321" transform="translate(-12.145 -96.798)" fill="#5f6071"/>
    <path id="Path_12086" data-name="Path 12086" d="M21.131,211.642c.41,1.711-.419,3.6.762,5.2A2.19,2.19,0,0,1,22.567,219c-.326,1.11-.327,2.375-1.458,3.109-.875-3.444-.545-6.945-.487-10.432l.509-.031" transform="translate(-5.497 -56.718)" fill="#5e5f6f"/>
    <path id="Path_12087" data-name="Path 12087" d="M22.887,235.056c-1.187,1.373-.173,3.1-.73,4.569a15.024,15.024,0,0,1-.523-6.09c.833-.813-.634-2.538,1.178-2.963a2.928,2.928,0,0,1,.075,4.484" transform="translate(-5.779 -61.791)" fill="#4d4f61"/>
    <path id="Path_12088" data-name="Path 12088" d="M22.32,228.1c-.416.984.212,2.222-.75,3.072q-.122-3.178-.244-6.356l.709-3.066c1.747,2.043,1.549,4.173.285,6.351" transform="translate(-5.715 -59.426)" fill="#2f3147"/>
    <path id="Path_12089" data-name="Path 12089" d="M146.983,282.615l.859.794-3.025,2.845-1.62-.8c.386-2.115,1.767-2.9,3.786-2.834" transform="translate(-38.375 -75.737)" fill="#4c4e60"/>
    <path id="Path_12090" data-name="Path 12090" d="M181.589,96.585l-.783.946c-1.464.3-2.909-.131-4.369-.1-.854-.238-2.006-.073-2.021-1.465,2.4.084,4.9-1.012,7.173.619" transform="translate(-46.742 -25.642)" fill="#35374c"/>
    <path id="Path_12091" data-name="Path 12091" d="M45.608,353.2l.671-.751c2,.382,1.852,1.986,1.962,3.446-.168.562-.42,1.029-1.129.947a9.4,9.4,0,0,1-1.5-3.642" transform="translate(-12.223 -94.452)" fill="#515365"/>
    <path id="Path_12092" data-name="Path 12092" d="M52.31,643.632c.968,1.072,1.073,2.454,1.356,3.772-1.9-.736-2.254-2.03-1.356-3.772" transform="translate(-13.892 -172.487)" fill="#5b5d6e"/>
    <path id="Path_12093" data-name="Path 12093" d="M21.171,209.261l-.253.032h-.255l.02-6.535.437.076q.026,3.213.052,6.427" transform="translate(-5.537 -54.337)" fill="#47485c"/>
    <path id="Path_12094" data-name="Path 12094" d="M50.312,636.951c.937,1.4,1.02,3.075,1.443,4.639-2.055-.1-1.553-1.969-2.14-3.086.442-.423.056-1.219.7-1.553" transform="translate(-13.296 -170.697)" fill="#636575"/>
    <path id="Path_12095" data-name="Path 12095" d="M54.429,650.867c1.773-.788,2.739.49,3.815,1.488-.07.468-.485.528-.814.69-1.085-.61-2.356-.963-3-2.178" transform="translate(-14.586 -174.361)" fill="#646576"/>
    <path id="Path_12096" data-name="Path 12096" d="M44.156,365.609q-.013.28-.044.559c.057,1.886-1.277,1.919-2.608,1.96a1.574,1.574,0,0,1-1.092-1.189,4.93,4.93,0,0,1,3.744-1.331" transform="translate(-10.83 -97.978)" fill="#646575"/>
    <path id="Path_12097" data-name="Path 12097" d="M58.529,653.68l.814-.69,2.758,1.677c.069.657-.078,1.048-.839.676l-2.733-1.663" transform="translate(-15.685 -174.995)" fill="#434458"/>
    <path id="Path_12098" data-name="Path 12098" d="M62.263,655.957l.838-.676,3.069,2-.808.726-3.1-2.047" transform="translate(-16.686 -175.609)" fill="#57596a"/>
    <path id="Path_12099" data-name="Path 12099" d="M21.126,200.716a1.326,1.326,0,0,0-.437-.076q.014-2.893.027-5.787c.952,1.9.459,3.9.41,5.863" transform="translate(-5.544 -52.219)" fill="#686b79"/>
    <path id="Path_12100" data-name="Path 12100" d="M39.609,367.43l.766.709a1.964,1.964,0,0,1-2.081,1.755c-.652-.331-1.072-.779-.787-1.577l2.1-.887" transform="translate(-10.027 -98.468)" fill="#2b2d43"/>
    <path id="Path_12101" data-name="Path 12101" d="M47.662,358.108l.749-.92c1.569.676,2.389,1.589,1.008,3.2l-.105-.045c-1.226-.243-1.239-1.384-1.651-2.23" transform="translate(-12.773 -95.723)" fill="#656677"/>
    <path id="Path_12102" data-name="Path 12102" d="M173.519,96.041l2.341.735c-.829,1.616-1.928,1.468-3.156.485l-1.636-.775a2.939,2.939,0,0,1,2.451-.445" transform="translate(-45.844 -25.717)" fill="#595a6b"/>
    <path id="Path_12103" data-name="Path 12103" d="M36.656,368.642l.719.963c-.3,1.288-1.135,1.427-2.218,1.046l-.918-.755a4.284,4.284,0,0,1,2.417-1.254" transform="translate(-9.176 -98.793)" fill="#45475a"/>
    <path id="Path_12104" data-name="Path 12104" d="M50.07,636.16c-.091.581-.094,1.2-.7,1.553l-.659-2.233q.31-.741.619-1.482a2.742,2.742,0,0,1,.738,2.162" transform="translate(-13.055 -169.906)" fill="#535566"/>
    <path id="Path_12105" data-name="Path 12105" d="M687.7,603.524c-1.825,9.168-3.421,18.38-6.141,27.357-1.105,3.647,1.785,2.694,3.472,2.321,8.18-1.81,16.365-3.623,24.462-5.763,3.019-.8,3.979-.226,3.8,2.864a169.1,169.1,0,0,1-9.531,48.056c-.949,2.621-2.336,3.66-5.368,3.523-16.188-.734-32.219-2.932-48.286-4.8q-22.3-2.595-44.693-4.111-33.724-2.3-67.528-2.362c-7.408-.023-14.808-1.056-22.222-1.428-3.107-.156-3.711-1.383-3.358-4.339,1.2-10.019,4.241-19.694,5.063-29.8,1.447-17.772.7-35.544.491-53.312a132.432,132.432,0,0,0-3.387-28.219c-.267,10.1,1.728,20.13,1.119,31.209-6.245-9.845-10.608-19.934-17.532-28.394,4.723,10.533,7.895,21.866,16.115,30.525.743.782,1.6,1.455,1.572,2.741-.165,6.631.031,13.278-.744,20.318l-10.883-7.86c-13.33-10.191-26.558-20.52-40.067-30.471-3.153-2.323-3.524-4.478-2.73-7.906,3.224-13.929,8.379-27.161,14.3-40.1,7.638-16.689,14.954-33.545,24.2-49.448,2.993-5.148,3.372-5.218,8.9-3.588,1.922.567,1.882,2.417,2.4,3.775,10.057,26.336,20.207,52.638,31.146,78.622,8.583,20.388,16.934,40.9,28.265,60a51.675,51.675,0,0,0,13.694,15.507c6.83,5.039,14.343,6.6,22.757,5.39,10.867-1.563,19.641-6.6,27.122-14.44,11.269-11.806,20.874-24.7,27.2-39.865.825-1.977.59-5.025,2.35-5.76,1.631-.679,3.385,1.886,5.241,2.75,2.092.974,3.731-.463,4.011-3.737.508-5.94,1-11.883,1.379-17.832a144.808,144.808,0,0,0-7.356-55.346,10.7,10.7,0,0,0-.64-1.313c-1.495-.771-1.575-2.356-2.018-3.678-1.683-5.015-3.55-9.963-5.242-14.975-.311-.4-.747.426-.375.111.147-.125.284-.11.339.067,1.984,6.395,5.281,12.382,5.968,19.181a220.584,220.584,0,0,1,6.149,31.044c1.269,11.457.482,22.846.109,34.267-.075,2.309-.242,4.618-.465,6.918-.1,1.018.5,2.442-.757,2.934-.93.364-1.709-.687-2.486-1.247-8-5.774-15.412-12.283-22.959-18.621-11.834-9.938-23.709-19.825-36.151-29a6.3,6.3,0,0,1-2.952-4.6c-2.406-17.83-5.438-35.588-5.588-53.653-.011-1.305.321-3.01-1.606-3.1-2.16-.1-1.988,1.738-2,3.165-.109,10.131,1.3,20.148,2.435,30.176.913,8.09,2.26,16.13,3.319,24.2a3.925,3.925,0,0,0,2.509,3.424c2.849,1.52,5.237,3.9,7.815,5.932a1.811,1.811,0,0,1,.444,2.292c-2.657,7.808-5.285,15.626-7.941,23.5-1.837-.553-2.123-2.178-2.794-3.346q-24.089-41.917-48.045-83.908c-1.622-2.844-2.74-5.972-4.336-8.833-1.581-2.834-.479-3.76,2.227-4.753,9.263-3.4,16.568-9.146,20.581-18.466,2.721-6.319,3.134-12.973,2.562-19.7a6.79,6.79,0,0,1,2.727-6.546c6.613-5.369,13.028-10.981,19.635-16.6,2.972,4.509,7.152,7.658,11.067,11.085,14.508,12.7,25.751,28.2,37.084,43.582,15.035,20.406,28.611,41.714,39.243,64.816,4.793,10.416,6.931,21.449,8.377,32.661.28,2.17-.955,4.491-1.115,6.769-1.029,14.681-1.815,29.381-3.7,43.989-.263,2.043-.443,4.1-.662,6.147" transform="translate(-123.536 -105.716)" fill="#fe5718"/>
    <path id="Path_12106" data-name="Path 12106" d="M26.772,344.656l2.218-1.046,2.15-1.141c1.116-.22,2.258-.388,2.933-1.481,1.94-.259,3.879-.721,5.819,0a1.47,1.47,0,0,1,.459.742,3.446,3.446,0,0,0,1.575,2.077c.96.94,2.126,1.756,2,3.34-.4,1.158-1.471,1.067-2.392,1.326-10.916,3.058-19.548,9.622-27.156,17.747a8.385,8.385,0,0,0-1.22,1.924c7.3-8.887,16.09-15.5,26.986-19.136a9.5,9.5,0,0,1,7.122-.07,4.552,4.552,0,0,1,.837.548c1.043,1.463,2.6,2.37,3.9,3.55,1.422,1.258,3.041,2.277,4.413,3.6,1.038.776,2.1,1.513,3.129,2.307,4.967,3.642,9.835,7.415,14.831,11.021a392.038,392.038,0,0,0,63.02,37.389,679.5,679.5,0,0,0,79.269,30.739c9.964,3.2,19.958,6.282,30.1,8.855,1,.253,2.225,1.108,3.048.022.651-.86-.252-1.831-.685-2.648-8.652-16.319-12.845-34.115-17.028-51.886a611.445,611.445,0,0,1-11.2-60.272,5.017,5.017,0,0,0-2.6-4.088c-15.426-2.765-29.775-8.78-44.189-14.608s-28.513-12.324-42.7-18.652c-.988-.441-1.919-1.012-3.138-1.663,4.732-2.3,9.56-3.487,14.244-5.078,16.333-5.549,32.648-11.143,49.76-13.915a217.281,217.281,0,0,1,23.219-2.495,7.444,7.444,0,0,1,5.267,1.785c11.639,8.911,24.492,13.847,39.428,11.324,2.121-.359,4.186-1.052,6.626-1.68-.337,8.993-1.584,17.7-.867,26.456.1,1.254-.851,1.6-1.616,2.162-8.226,6.057-11.842,14.641-12.8,24.411-.431,4.409,2.326,7.807,5.492,10.64a29.437,29.437,0,0,0,11.763,6.367c2.834.795,4.047,2.342,4.835,5.038a79.84,79.84,0,0,0,7.422,17.381c9.668,16.851,24.124,25.525,43.593,25.664,2.011.015,3.127.19,3.719,2.659,1.287,5.364,4.826,9.369,8.97,12.966,10.315,8.954,22.45,13.823,35.663,16.415,1.31.257,2.613.555,4.372.93a138.789,138.789,0,0,0-8.683,14.773c-.718,1.44-1.965,1.156-3.143,1.167-37.842.364-74.814,6.617-111.155,16.786-14.38,4.024-28.525,8.868-42.6,13.868-1.536,1.754-3.861,1.817-5.8,2.716-1.714.388-3.311,1.385-5.174,1.031a495.843,495.843,0,0,1-69.545-23.587C91.421,443.9,55.362,421.216,24.986,390.006c-6.789-6.976-13.32-14.184-19.492-21.713-1.567-1.912-3.438-3.8-2.066-6.652,6.787-7.027,14.981-12.122,23.344-16.984" transform="translate(-0.791 -72.798)" fill="#fefefe"/>
    <path id="Path_12107" data-name="Path 12107" d="M319.812,188.976c-.487,2-1.12,3.982-1.438,6.011-2.227,14.174,8.638,21.215,18.908,21.493a51.232,51.232,0,0,0,21.159-4.3c6.239-2.573,12.9-4.2,18.914-7.423,18.475-9.911,32.875-24.467,45.953-40.5,3.928-4.813,7.753-9.705,12.794-13.438,3.446-2.551,7.085-4.745,11.5-5.126a9.233,9.233,0,0,1,9.751,7.353c1.086,6,3.426,11.635,5.041,17.48.739,2.673,2.431,3.305,4.6,1.43,2.809-2.422,6.5-3.994,7.833-7.884a.731.731,0,0,1,1.265.032c.893,1.2,1.187,3.069,3.288,2.92,2.059-.145,1.735-1.938,2.32-3.176,1.234-2.61,5.945-4.555,9.573-4.136,3.362.389,5.017,2.5,5.978,5.56a258.781,258.781,0,0,0,13.02,34.2c4.45,9.308,6.247,19.637,9.81,29.321,1.969,5.351,3.666,10.806,6.348,15.871.874,1.652,1.849,3.323,3.968,3.306,2.152-.017,2.5-1.919,3.156-3.494,5.235-12.5,13.335-22.568,25.292-29.216,15.827-8.8,32.964-4.18,41.59,11.673,7.725,14.2,11.638,29.336,6.007,45.243-4.615,13.038-12.645,20.212-25.3,19.662-2.314-.1-3.538.777-2.692,3.3.573,1.71-.482,3.058-1.1,4.461a56.2,56.2,0,0,1-16.286,21.709c-13.268,10.556-25.331,22.763-40.705,30.552-2.629,1.332-4.608,2.178-7.459.083-3.394-2.494-7.191-1.566-10.548.773-2.6,1.808-5.221,3.585-7.7,5.544-7.228,5.716-15.354,4.948-23.692,3.69-5.693-.859-10.6-3.385-15.467-6.159-4.75-2.709-9.417-5.576-14.252-8.122-7.663-4.036-14.312-3.131-20.829,2.674a25,25,0,0,0-7.869,11.636c-.59,2.039-1.623,2.513-3.61,2.495-21.777-.2-35.979-11.369-44.617-30.646-.843-1.88-1.583-3.809-2.3-5.741s-1.342-3.891-1.983-5.77c.7-.82,1.478-.464,2.111-.3,7.65,2,15.232,1.125,22.752-.632a4.653,4.653,0,0,1,4.9,1.287,26.239,26.239,0,0,1,5.418,7.271c3.648,7.733.623,15.33-7.352,18.417-1.421.55-2.883,1-4.815,1.659,5.811.881,12.121-2.583,14.781-7.7,3.643-7.015,1.662-14.111-6.431-22.58,5.182-2.274,10.148-4.769,13.947-9.048,4.717-5.312,6.856-11.558,5.873-18.507-.547-3.866.66-5.406,4.275-5.675a26.13,26.13,0,0,0,3.613-.473c1.719-.375,2.256.2,2.468,1.974.712,5.978,2.224,11.714,6.4,16.354a6.773,6.773,0,0,0,2.8,2.276,11.113,11.113,0,0,1,5.211,3.626c4.8,3.316,10.354,3.891,15.928,4.2a110.645,110.645,0,0,0,20.336-1.089c1.313-.169,2.535-.809,3.35,1.427,4.49,12.322,13.553,17.521,26.865,15.685a40.01,40.01,0,0,0,14.7-4.915c2.367-3.05,6.568-3.4,9.113-6.184a8.1,8.1,0,0,1,1.676-1.36,8.659,8.659,0,0,0-1.859,1.444,29.808,29.808,0,0,1-10.391,5.369c-7.691,3.044-15.538,4.925-23.84,2.981-7.185-1.683-11.331-6.664-14.006-13.165-.96-2.331.851-2.255,2.25-2.481,13.347-2.145,24.315-8.737,33.806-18.084a9.783,9.783,0,0,0,1.929-2.174c1.4-2.656,3.591-3.334,6.35-2.853a14.641,14.641,0,0,1,8.761,3.115c.542.366,1.063.77,1.352.975-.223-.039-.505-.531-.941-.788-2.106-1.673-4.757-2.389-6.93-3.943l-5.107-1.227c3.076-5.658,4.562-11.6,3.318-17.949-1.913-9.764-8.123-16.2-17.191-19.149-22.574-7.347-44.816-6.685-65.917,5.155-10.114,5.675-17.223,13.835-18.128,26.081-.091,1.225-.524,1.734-1.753,1.73-1.214,0-2.651-.247-3.6.293-4.963,2.81-6.977.409-9.463-3.873-3.148-5.423-8.4-8.209-15.052-8.848-13.27-1.274-26.191-.593-38.794,4.721-1.59-8.206.122-16.054.032-24.183,6.988,1.979,13.8,3.59,20.081,6.911,4.4,2.325,8.835,4.636,13.691,5.881,6.417,1.646,11.128-1.4,11.294-7.086.076-2.6-1.37-4.4-2.989-6.019-10.971-10.947-22.555-21.117-36.9-27.524-1.695-.757-1.735-1.638-1.587-3.06.187-1.791,1.024-3.526.488-5.547-6.807,2.307-13.623,4.467-20.917,4.118-6.067-.291-11.46-2.157-15.578-6.822-5.45-6.175-5.885-15.469-1.211-23.831.618-.088,1.06-.024.657.765" transform="translate(-84.669 -39.038)" fill="#fefefe"/>
    <path id="Path_12108" data-name="Path 12108" d="M308.967,559.9l-40.1-8.959c.094-2.207,2.313-1.2,3.242-2.145,1.871-.57,3.664-1.485,5.706-1.309,15.128-4.5,30.031-9.792,45.379-13.514,34.566-8.381,69.423-15.011,105.082-16.456,4.167-.168,4.09-.182,2.313,3.626-9.8,21-20.485,41.625-27.424,63.858a142.347,142.347,0,0,0-3.847,15.554c-.3,1.58-.229,2.778,1.186,3.838q21.888,16.386,43.724,32.84c3.618,2.839,7.208,5.716,10.871,8.5,1.267.962,2.166,1.654,1.188,3.519-8.347,15.921-16.541,31.926-26.844,46.722-.07.1-.157.187-.223.289-3.281,5.079-7.141,7.985-13.93,8.677-29.64,3.02-59.185,6.967-88.768,10.552a6.209,6.209,0,0,0-4.636,2.828c-3.651,4.828-4.851,10.848-8.311,15.732-2.922,4.125-6.22,5.038-10.606,2.573-2.281-1.282-3.111-2.842-1.632-5.33,2.177-3.663,4.58-7.161,7.1-10.589.946-1.286,2.667-2.534,1.111-4.421-1.4-1.7-2.913-.463-4.3.107-13.358,5.486-26.715,10.976-40.43,15.529-2.981.99-5.92,2.023-9.241,1.348-3.959-.8-8.024-1.733-9.22-6.015a12.59,12.59,0,0,1,3.11-12.148c5.112-5.584,11.781-8.883,18.445-12.187,8.544-4.237,17.818-6.311,26.792-9.275a5.277,5.277,0,0,1,2.862.167c14.5,3.057,29.033,6,43.707,8.134,2.065.3,4.342,1.406,6.34-.4a70.123,70.123,0,0,0-2.477-9.53c-1.085-3.886-.8-4.574,3.124-5.9,8.545-2.875,17.083-5.759,25.51-8.974,4.332-1.654,8.539-3.55,12.741-5.5a12.628,12.628,0,0,0,6.944-7.495c5.835-15.63,11.4-31.351,16.556-47.221-3.515,9.747-6.965,19.516-10.446,29.275-2.209,6.194-4.431,12.383-6.868,18.5a10.882,10.882,0,0,1-5.435,6.12c-12.749,6.193-26.19,10.579-39.6,15.014-3.125,1.034-4.28.045-5.349-3.683a516.72,516.72,0,0,1-13.772-61.278c-2.694-16.947-5.448-33.882-7.658-50.9a7.884,7.884,0,0,1-.124-2.182c.459-2.986-.6-4.85-3.725-5.285-.83-1.02-2.423-.182-3.208-1.315a6.676,6.676,0,0,1-4.855-1.286" transform="translate(-65.895 -138.676)" fill="#fefefe"/>
    <path id="Path_12109" data-name="Path 12109" d="M613.144,541.066c8.843,7.431,17.207,14.464,25.577,21.49,5.4,4.535,10.676,9.242,16.288,13.5,2.542,1.931,2.76,3.891,1.985,6.53a67.3,67.3,0,0,1-8.16,17.026c-7.662,12.072-15.868,23.942-27.843,31.977-15.3,10.266-32.134,10.045-44.334-4.811-7.511-9.146-12.464-19.7-17.382-30.257-17.842-38.309-32.832-77.8-47.965-117.216-1.612-4.2-4.569-6.178-8.5-7.09-7.808-1.81-15.709-3.214-23.316-5.84-8.684-3-16.049-8.141-22.558-14.411-4.134-3.983-7.229-8.977-4.79-15.038,2.954-7.344,7.892-12.91,16.244-14.145,2.833-.419,5.458.91,7.966,2.2,7.236,3.725,13.9,8.516,21.378,11.766,7.9,3.429,16.3,4.042,24.7,3.121,4.624-.507,8.307-3.839,12.221-6.247a55.479,55.479,0,0,0,4.994-3.678c2.481-1.943,5.132-2.816,8.119-1.3,3.058,1.552,4.225,4.242,4.181,7.53a37.858,37.858,0,0,1-8.572,23.525c-1.451,1.826-1.462,3.123-.63,5.142,6.563,15.925,16.268,30.122,24.692,45.015,10.647,18.824,21.654,37.444,32.541,56.132.559.959.713,2.654,2.274,2.412,1.208-.187,1.258-1.665,1.629-2.642,3.044-8.038,6.043-16.094,9.261-24.691" transform="translate(-120.94 -113.281)" fill="#fefefe"/>
    <path id="Path_12110" data-name="Path 12110" d="M904.946,145.236c-18.63,9.3-37.811,17.372-56.97,25.493-.543.231-1.043.563-1.564.848-8.186,3.017-16.355,6.081-24.568,9.022-2.364.847-4.765,1.943-7.414,1.149-1.586-.477-1.453.583-1.544,1.607-1.566,17.587-5.448,34.8-8.377,52.169-.476,2.819-1.464,2.828-3.732,1.908-9.894-4.014-19.884-7.786-29.766-11.827-6.405-2.619-13.224-3.1-19.9-4.287-5.184-.925-5.569-1.236-4.688-6.375a183.417,183.417,0,0,0,2.832-29.377c.115-12.825-3.995-24.59-8.431-36.322-1.028-2.719-2.867-5.606-2.575-8.219.307-2.751,4.113-3.7,6.147-5.732,2.5-2.491,5.18-4.787,6.393-8.27.612-1.756.581-3.412-.8-4.724-1.563-1.482-3.232-.763-4.63.294a10.217,10.217,0,0,1-8.536,2.2c-2.181-.452-3.591-1.183-1.672-3.813a31.11,31.11,0,0,0,5.713-15.188c.351-3.35,1.891-3.249,4.24-2.933,15.3,2.053,30.6,4.133,45.807,6.811,1.19.209,2.4.3,3.6.446,4.11-.724,7.96.758,11.808,1.655,22.891,5.335,45.108,12.9,67.232,20.74,8.474,3,16.895,6.155,25.4,9.083,1.825,1.5,5.045.715,6.008,3.639" transform="translate(-196.769 -27.527)" fill="#fefefe"/>
    <path id="Path_12111" data-name="Path 12111" d="M45.112,320.927a4.752,4.752,0,0,0-.045-.509c-.951-1.083-.806-2.928-2.455-3.525.308-1.269-.374-2.225-1.009-3.2q-.791-1.737-1.58-3.473c-6.569-18.728-10.5-38.083-13.514-57.635-1.388-8.993-2.3-18.059-3.435-27.092a9.087,9.087,0,0,0-.5-4.593l-.285-6.351q.038-1.1.075-2.2c-.007-4.859-.06-9.719.015-14.577.018-1.118-.775-2.93,1.572-2.879a2.461,2.461,0,0,1,1.069,1.974c.013.772.348,1.543.03,2.32,1.237,2.368,2.086,4.964,4.052,6.9a1.825,1.825,0,0,1,1.588.921,8.207,8.207,0,0,0,1.935,3.607c1.624,1.565,2.565,3.766,4.635,4.91a8.858,8.858,0,0,1,1.784,1.795c4.41,5.227,10.031,9.056,15.3,13.29,1.4,1.123,3.136,1.9,3.891,3.7,11.721,9.274,24.96,16.072,38,23.183,5.291,2.886,10.766,5.434,16.156,8.136,14.966,8.065,30.433,15.085,46.087,21.673,18.011,7.579,36.177,14.778,55.176,19.6,2.459.624,4.91,1.433,7.515,1.224,4.428.64,4.26.66,4.849,5.459,3.4,27.688,7.654,55.22,16.121,81.907a141.889,141.889,0,0,0,11.951,27.789c.537.938,1.461,1.961.821,2.992-.881,1.418-2.275.365-3.313.085-20.809-5.634-41.165-12.654-61.305-20.3-21.636-8.218-42.872-17.369-63.614-27.642-16.505-8.174-31.819-18.318-46.95-28.742-4.9-3.8-10.05-7.274-14.946-11.084a20.508,20.508,0,0,0-3.106-2.348c-1.37-1.31-3.027-2.271-4.387-3.593a28.822,28.822,0,0,1-3.937-3.285l-.914-.081c-.921-1.451-2.826-1.81-3.692-3.323l-2.151-2.124c-.414-1.01-1.338-1.761-1.482-2.91" transform="translate(-5.966 -52.231)" fill="#fefefe"/>
    <path id="Path_12112" data-name="Path 12112" d="M897.228,569.152l-6.694,6.566c-10.28,7.7-21.479,13.9-32.755,19.973-20.287,9.853-40.96,18.81-62.083,26.719-8.215,3.076-16.939,4.216-25.354,6.536-2.509.692-1.906-.867-1.563-2.165a126.712,126.712,0,0,0,4.146-21.017c1.632-6.765,2.026-13.7,2.8-20.583,1.706-15.236,3.385-30.478,4.812-45.743,1.042-11.148,1.874-22.327,2.419-33.509.679-13.939,1.341-27.9-.452-41.822-.172-1.338-.5-2.327,1.666-2.652,20.171-3.017,39.362-9.672,58.586-16.159a153.824,153.824,0,0,0,17.987-6.8c12.457-4.177,24.3-9.766,35.986-15.706a143.847,143.847,0,0,0,23.206-14.358c4.715-3.659,9.016-7.682,11.517-13.78,2.182,6.721,1.928,13.206,1.38,19.578-3.942,45.8-13.719,90.459-26.489,134.529-2.1,7.234-5.647,13.787-9.112,20.393" transform="translate(-205.94 -105.763)" fill="#fefefe"/>
    <path id="Path_12113" data-name="Path 12113" d="M865.817,185.8a385.735,385.735,0,0,0,50.1-21.611c8.84-4.53,17.695-9.091,25.274-16.191,1.89,4.368,2.036,8.72,2.047,13.05.034,14.036-1.632,27.942-3.709,41.785-3.7,24.654-8.145,49.167-15.27,73.109a110.841,110.841,0,0,1-3.749,10.643,33.9,33.9,0,0,1-12.96,15.877c-14.917,9.722-31.1,17.011-47.165,24.537-3.076,1.441-6.129,2.93-9.193,4.4-13.529,5.634-26.8,11.907-40.749,16.5-2.3.757-4.678,1.281-7.038,1.837-1.829.431-2.752.215-1.884-2.118,8.711-23.4,13.864-47.753,18.748-72.139,5.057-25.248,9.381-50.635,12.328-76.23.263-2.284.858-2.965,3.224-3.5a182.672,182.672,0,0,0,29.991-9.947" transform="translate(-214.713 -39.663)" fill="#fefefe"/>
    <path id="Path_12114" data-name="Path 12114" d="M843.665,389.418c7.438-2.594,14.323-6.434,22.056-9.928L853.5,421.6c-.629,5.855-4.443,8.2-9.665,10.041-17.868,6.308-35.606,12.987-54.108,17.275-2.986.693-6.039,2.05-9.239.616a1.559,1.559,0,0,0-1.35.239c-4.74,4.092-8.836-.74-13.25-1.025-1.457-.094-.552-1.9-.423-2.835q2.955-21.509,6.05-43c2.088-14.571,4.286-29.127,6.26-43.713.338-2.5.9-3.047,3.345-2.206,5.623,1.935,11.32,3.667,17.036,5.309,1.758.505,2.288,1.006,1.822,2.968-2.95,12.409-5.667,24.889-10.132,36.864-1.691,4.537.9,6.194,4.716,5.3,14.964-3.517,29.061-9.45,43.222-15.216,2.007-.818,3.925-1.856,5.885-2.793" transform="translate(-205.031 -95.571)" fill="#fefefe"/>
    <path id="Path_12115" data-name="Path 12115" d="M640.671,62.516c17.019,14.659,22.564,32.665,19.9,54.543-3-3.285-5.341-6.051-7.9-8.6-2.394-2.383-5.079-4.444-8.706-2.3-2.878,1.7-3.891,5.869-2.561,9.791,1.37,4.041,4.312,7.028,6.932,10.187,2.14,2.582,2.9,5.137,1.728,8.362-1.49,4.107-2.525,8.389-4.169,12.427-5.643,13.866-13.592,18.037-28.226,14.847-8.954-1.952-17.874-3.737-27.081-1.788-2.275.482-4.522.924-6.68,2.708-1.9-4.721-2.65-9.663-5.056-13.994-2.354-4.237-4.85-8.419-6.573-13.2,8.191-1.082,15.377-4.806,22.722-8.045,8.508-3.752,11.354-11.218,12.083-19.7.288-3.355-.449-6.788-.6-10.191-.291-6.484,2.305-9.226,8.775-9.282,2.921-.025,5.846.178,8.767.141,10.351-.131,16.008-5.5,16.617-15.848.184-3.115.029-6.249.029-10.062" transform="translate(-153.366 -16.754)" fill="#fefefe"/>
    <path id="Path_12116" data-name="Path 12116" d="M470.819,343.306c-5.765-4.579-8.16-11.01-8.428-17.918-.212-5.431-.681-11.089,2.27-16.33a37.609,37.609,0,0,1,11.993-13.012,60.221,60.221,0,0,1,28.218-10.076c13.176-1.247,26.311-.977,38.813,4.178,12.842,5.295,18.379,18.126,13.475,30.506-1.091,2.756-2.524,4.172-5.789,4.253a50.462,50.462,0,0,0-22.778,5.79c-6.891,3.675-12.348,8.623-14.374,16.52-.237.926-.537,1.592-1.561,1.7-11,1.173-22.015,2.982-32.935-.537-1.263-.406-2.468-.989-3.7-1.49-2.178-.552-4.174-1.367-5.2-3.585" transform="translate(-123.873 -76.471)" fill="#fefefe"/>
    <path id="Path_12117" data-name="Path 12117" d="M773.874,86.091c27.308,5.242,54.351,11.6,81,19.53,13.057,3.884,25.07,10.392,37.61,15.582,5.253,2.173,10.5,4.355,15.912,6.6-3.968,4.1-9.219,6.209-13.888,9.181a57.069,57.069,0,0,1-7.163-2.54c-19.854-7.246-39.578-14.855-59.707-21.323-12.856-4.131-25.732-8.2-39.082-10.52-1.509-.263-3.191-.266-4.38-1.54-8.729-2.186-17.675-3.047-26.555-4.271-8.543-1.177-17.125-2.085-25.7-2.991-1.681-.178-2.271-.75-2.344-2.424-.107-2.484-.553-5.025-3.536-5.677a5.923,5.923,0,0,0-6.758,3.219c-4.017,7.373-14.6,7.013-21.031,2.864a2.781,2.781,0,0,1-1.1-1.384,82.264,82.264,0,0,0-7.163-15.942c28.485,3.581,56.279,6.879,83.88,11.637" transform="translate(-184.912 -19.953)" fill="#fefefe"/>
    <path id="Path_12118" data-name="Path 12118" d="M724.187,433.717c7.017,1.257,13.14,2.156,19.157,3.518,2.766.626,3.594-.061,3.936-2.718,1.659-12.905,3.456-25.794,5.213-38.687q3.179-23.313,6.387-46.622c.649-4.661.733-4.7-3.977-5.2-9.075-.968-18.156-1.869-27.232-2.82-2.738-.287-5.571-.346-8.089-2.816,3.689-.773,7.015-1.378,10.292-2.184,2.978-.733,5.8-1.886,7.8-4.391,2.326-2.916,1.627-5.08-2-6.1a20.891,20.891,0,0,1-9.229-5.645c-.8-.8-2.121-1.66-1.5-3.048.525-1.177,1.911-.8,2.932-.867,6.042-.4,11.839,1.123,17.619,2.517,14.761,3.561,29.341,7.7,43.346,13.694,2.506,1.072,3.677,2.152,2.673,5.118a52.265,52.265,0,0,0-2.09,9.6c-.373,2.72-1.17,3.388-3.949,2.4-5.828-2.082-11.834-3.658-17.713-5.606-2.425-.8-3.295-.516-3.692,2.325q-6.267,44.791-12.874,89.535c-.4,2.737.255,3.941,3.086,4.386,3.227.507,6.343,1.69,9.562,2.29,2.365.441,3.165,1.668,3.271,3.935.464,9.966.264,19.923-.074,29.88-1.468.492-2.09-.684-2.9-1.247a62.012,62.012,0,0,0-15.684-8.436,9.861,9.861,0,0,1-5.825-4.905c-5.422-9.347-11.587-18.222-18.446-27.906" transform="translate(-192.841 -84.706)" fill="#fefefe"/>
    <path id="Path_12119" data-name="Path 12119" d="M887.214,424.428c4.085-13.582,8.231-27.147,12.2-40.763a7.346,7.346,0,0,1,4.085-5.032,240.444,240.444,0,0,0,24.041-13.755c1.321-.875,1.968-.686,3.485.139,9.717,5.281,18.167,12.653,28.395,17.069,2.473,1.069,1.79,3.2,1.05,4.985-1.591,3.829-4.615,6.54-7.764,9.044-12.2,9.7-26.274,16.087-40.328,22.474-7.172,3.26-14.424,6.344-21.64,9.508l-4.758,1.473,1.239-5.142" transform="translate(-237.433 -97.63)" fill="#fefefe"/>
    <path id="Path_12120" data-name="Path 12120" d="M752.334,360.974c-1.791,13.315-3.549,26.447-5.327,39.576-1.926,14.219-3.914,28.429-5.774,42.656-.4,3.064-.8,5.137-4.882,3.841a54.312,54.312,0,0,0-11.823-2.195,12.789,12.789,0,0,1-9.923-5.746c-3.7-5.13-7.63-10.1-11.553-15.061-.969-1.225-1.18-2.036-.119-3.389,15.837-20.187,32.274-39.881,48.663-59.617.051-.062.223-.025.738-.065" transform="translate(-188.19 -96.738)" fill="#fefefe"/>
    <path id="Path_12121" data-name="Path 12121" d="M697.184,418.653c-2.431-2.853-4.677-5.544-6.993-8.176-.848-.963-.667-2.045-.61-3.111.845-15.806,1.755-31.608,2.532-47.417.133-2.7.933-3.382,3.412-2.167,1.406.69,3.056.886,4.457,1.584,6.271,3.125,12.029,1.324,17.677-1.689.734-.392,1.881-.954,1.935-1.524.418-4.339,3.481-2.892,5.795-2.676,7.39.689,14.766,1.528,22.814,2.38-17.086,21.05-34.41,41.451-51.019,62.8" transform="translate(-184.786 -94.62)" fill="#fefefe"/>
    <path id="Path_12122" data-name="Path 12122" d="M395.494,318.135c3.187.462,7.068.03,10.912,1.042,9.062,2.388,13.937,8.437,15.562,17.3,1.611,8.788-1.335,16.012-8.321,21.551a33.514,33.514,0,0,1-4.279,2.759,16.637,16.637,0,0,1-13.107,2.012,89.333,89.333,0,0,0-22.735-2.757c-1.6.018-2.432-.269-2.782-1.934a304.647,304.647,0,0,1-4.555-32.082c-.228-2.24,1.235-2.588,2.673-3.2,8.3-3.547,17.04-4.691,26.631-4.686" transform="translate(-98.129 -85.257)" fill="#fefefe"/>
    <path id="Path_12123" data-name="Path 12123" d="M748.725,270.544c14.214-.01,27.6,6.308,41.239,11.759,2.7,1.082,5.4,2.189,8.1,3.271,6.11,2.443,6.128,2.443,4.936,8.721-.7,3.7-1.5,7.382-2.189,11.083-.339,1.807-.678,2.63-3.022,1.838a524.984,524.984,0,0,0-56.933-15.5c-2.431-.526-2.307-1.341-1.437-3.124a82.871,82.871,0,0,0,6.1-16.729c.279-1.146.466-2.6,3.2-1.32" transform="translate(-198.006 -72.369)" fill="#fefefe"/>
    <path id="Path_12124" data-name="Path 12124" d="M677.678,407.329c-5.015-5.44-9.289-10.236-13.744-14.855-3.46-3.589-7.087-7.027-10.769-10.389-1.375-1.256-1.57-1.972-.138-3.374,7.286-7.129,13.283-15.172,16.958-24.787.17-.444.383-1.23.6-1.24,3.145-.146,5.621,1.919,8.505,2.657,1.8.46,1.333,1.8,1.274,2.924q-.883,16.778-1.834,33.552c-.267,4.847-.534,9.695-.856,15.513" transform="translate(-174.741 -94.514)" fill="#fefefe"/>
    <path id="Path_12125" data-name="Path 12125" d="M100.415,390.009c14.476,9.58,28.871,19.288,44.414,27.129,33.552,16.926,68.389,30.7,104.082,42.361,8.635,2.82,17.351,5.392,26.851,8.332a139.119,139.119,0,0,1-13.356-29.6c-7.325-21.878-11.269-44.489-14.542-67.24-.9-6.256-1.794-12.532-2.219-18.83-.2-2.992-2.5-2.012-3.788-2.909.8-.091,1.685.106,2.313-.63,4.194-1.269,3.2,2.295,3.459,4.07A685.566,685.566,0,0,0,262.5,427.366c3.469,13.29,7.27,26.473,14.076,38.553.453.8,1.274,1.6.407,2.617-1.026,1.2-2.254.592-3.373.266-10.722-3.125-21.5-6.071-32.134-9.478a631.577,631.577,0,0,1-84.529-33.481A358.129,358.129,0,0,1,99.466,390.81c-.019-.664.1-1.159.949-.8" transform="translate(-26.656 -93.356)" fill="#2c2d43"/>
    <path id="Path_12126" data-name="Path 12126" d="M363.406,366.481c-5.486-1.56-10.15-3.678-13.95-7.455A10.946,10.946,0,0,1,346,348.777a35.821,35.821,0,0,1,8.086-17.274,9.062,9.062,0,0,1,4.044-2.93,224.158,224.158,0,0,0,5.274,37.907" transform="translate(-92.671 -88.055)" fill="#fefefe"/>
    <path id="Path_12127" data-name="Path 12127" d="M603.248,422.128a103.056,103.056,0,0,1-2.645,22.466c-1.586,6.371-11.472,14.294-18.613,15.019a45.338,45.338,0,0,0,7.487-18.564c.529-3.4.8-6.786-.514-10.047-.473-1.176-.333-1.646.824-2.2,4.347-2.073,8.635-4.268,13.46-6.674" transform="translate(-155.968 -113.126)" fill="#fefefe"/>
    <path id="Path_12128" data-name="Path 12128" d="M742.167,312.168c.758-1.782,2.865-3.137,1-5.669,5.6.724,10.656,2.312,15.77,3.611,12.233,3.106,24.395,6.465,36.389,10.4,5.062,1.662,5.044,1.721,3.712,7.118-.14.569-.305,1.131-.483,1.783-18.176-8.006-37.1-13.112-56.393-17.245" transform="translate(-198.894 -82.139)" fill="#fefefe"/>
    <path id="Path_12129" data-name="Path 12129" d="M573.1,341.914c-9.165,11.051-20.294,18.652-34.618,21.041-3.018.5-2-1.28-1.52-2.452a23.519,23.519,0,0,1,7.8-9.895c8.347-6.266,17.995-8.56,28.338-8.694" transform="translate(-143.752 -91.63)" fill="#fefefe"/>
    <path id="Path_12130" data-name="Path 12130" d="M774.048,565.406a192.594,192.594,0,0,0-15.451-37.5,67.5,67.5,0,0,1,17.327,10.567c1.244,1.03,1.121,2.3,1.029,3.635l-1.614,23.278a.756.756,0,0,1-1.291.017" transform="translate(-203.297 -141.475)" fill="#fdfdfd"/>
    <path id="Path_12131" data-name="Path 12131" d="M393.077,162.844c11.168-10.124,19.408-22.611,28.139-34.715,7.757-10.752,15.807-21.275,27.267-28.491a49.331,49.331,0,0,1,16.967-7.187,20.264,20.264,0,0,1,16.783,3.9c.066.672-.113,1.067-.89.79-10.332-6.363-19.805-2.706-29.1,2.558-10.733,6.082-18.3,15.44-25.627,25.019-8.256,10.794-15.646,22.274-25.234,32.01-2.377,2.413-5,4.588-7.505,6.871-.748.256-.924-.094-.8-.758" transform="translate(-105.332 -24.661)" fill="#fbfbfb"/>
    <path id="Path_12132" data-name="Path 12132" d="M818.1,110.8c11.029,1.2,21.636,4.262,32.186,7.487,24.233,7.408,47.961,16.245,71.511,25.574.088.732-.189,1.02-.919.753-12.217-4.281-24.414-8.616-36.653-12.831-21.879-7.533-43.809-14.905-66.652-19.084a5.123,5.123,0,0,1-1.007-.414A2.555,2.555,0,0,1,818.1,110.8" transform="translate(-218.832 -29.693)" fill="#2b2d43"/>
    <path id="Path_12133" data-name="Path 12133" d="M395.926,381.531a45.754,45.754,0,0,1-19.2-.521c-1.914-.492-2.975-1.392-2.725-3.148.309-2.168,2.126-.968,3.225-.879,6.321.507,12.476,2.012,18.662,3.312.536.4.529.81.034,1.236" transform="translate(-100.22 -100.918)" fill="#fafbfb"/>
    <path id="Path_12134" data-name="Path 12134" d="M737.088,529.542q-3.518-10.325-7.037-20.649l1.239-.416,7.125,20.359-1.328.706" transform="translate(-195.647 -136.267)" fill="#2b2d43"/>
    <path id="Path_12135" data-name="Path 12135" d="M599.8,383.142a29.654,29.654,0,0,1-9.5,5.867c-.3-.628-.9-.638-1.462-.731l10.195-5.87c.734-.253.906.077.763.734" transform="translate(-157.803 -102.459)" fill="#45475a"/>
    <path id="Path_12136" data-name="Path 12136" d="M606.432,345.032a38.531,38.531,0,0,0-8.729-3.683c.755-.188,1.652.122,2.242-.641,2.843.387,5.137,1.894,7.33,3.6.048.627-.093,1.03-.844.722" transform="translate(-160.179 -91.307)" fill="#3e4054"/>
    <path id="Path_12137" data-name="Path 12137" d="M513.669,98.729l.89-.79a14.978,14.978,0,0,1,5.131,5.069.97.97,0,0,1-.773.867l-5.248-5.146" transform="translate(-137.659 -26.247)" fill="#dcdcdf"/>
    <path id="Path_12138" data-name="Path 12138" d="M534.492,142.725q-.025,7.273-.05,14.546-.223.578-.531.04l-.143-14.625c.259-.324.5-.3.724.039" transform="translate(-143.045 -38.178)" fill="#e2e3e5"/>
    <path id="Path_12139" data-name="Path 12139" d="M473.657,364.525l5.2,3.585-.831.818a11.921,11.921,0,0,1-5.211-3.627l.838-.776" transform="translate(-126.711 -97.689)" fill="#4a4c5f"/>
    <path id="Path_12140" data-name="Path 12140" d="M520.838,105.731l.774-.867a17.072,17.072,0,0,1,3.6,5.851c-.185.3-.242.718-.691.79l-3.686-5.774" transform="translate(-139.58 -28.103)" fill="#e0e0e3"/>
    <path id="Path_12141" data-name="Path 12141" d="M533.7,162.728a.96.96,0,0,1,.531-.04q.013,2.99.027,5.98L533,168.634c.063-1.989-.254-4.025.706-5.907" transform="translate(-142.838 -43.593)" fill="#aeafb6"/>
    <path id="Path_12142" data-name="Path 12142" d="M286.989,558.171a19.382,19.382,0,0,1-5.418,1.838c-.419-.345-1.126.007-1.438-.6a18.629,18.629,0,0,1,5.937-2.089l.918.846" transform="translate(-75.073 -149.358)" fill="#5e6071"/>
    <path id="Path_12143" data-name="Path 12143" d="M391.736,188.772l.8.758a11.6,11.6,0,0,1-3.626,2.933c-.765.254-.963-.1-.843-.789l3.667-2.9" transform="translate(-103.99 -50.589)" fill="#dadbde"/>
    <path id="Path_12144" data-name="Path 12144" d="M534.322,140.91a7.249,7.249,0,0,1-.724-.039l-.463-4.422a1.208,1.208,0,0,1,.621-.764c1.038,1.65.61,3.458.566,5.225" transform="translate(-142.875 -36.362)" fill="#cdcdd1"/>
    <path id="Path_12145" data-name="Path 12145" d="M370.53,202.85c-1.367.549-2.615,1.706-4.5,1.047a4.454,4.454,0,0,1,4.5-1.047" transform="translate(-98.092 -54.305)" fill="#c5c6cb"/>
    <path id="Path_12146" data-name="Path 12146" d="M387.182,192.736l.843.788-3.281,2.553c-.2-2.446,1.51-2.568,2.438-3.341" transform="translate(-103.104 -51.651)" fill="#cdced3"/>
    <path id="Path_12147" data-name="Path 12147" d="M357.638,203.919h6.16a7.918,7.918,0,0,1-6.16,0" transform="translate(-95.844 -54.648)" fill="#e1e1e4"/>
    <path id="Path_12148" data-name="Path 12148" d="M525.874,113.646l.691-.79q.683,1.479,1.367,2.959c-.122.346-.174.747-.643.821Z" transform="translate(-140.929 -30.244)" fill="#e1e1e3"/>
    <path id="Path_12149" data-name="Path 12149" d="M527.806,117.719l.643-.821c.539,1.088,1.189,2.145.962,3.446a.7.7,0,0,1-.144,1.079,8.936,8.936,0,0,1-1.46-3.7" transform="translate(-141.447 -31.328)" fill="#f8f8f8"/>
    <path id="Path_12150" data-name="Path 12150" d="M533.449,134.287l-.622.764q-.421-2.165-.842-4.331c.22-.351.438-.333.655,0a5.823,5.823,0,0,1,.809,3.564" transform="translate(-142.567 -34.963)" fill="#eeeeef"/>
    <path id="Path_12151" data-name="Path 12151" d="M345.769,186.671c.22,1.241.44,2.481.736,4.15a4.693,4.693,0,0,1-1.305-4.155c.193-.337.382-.351.569,0" transform="translate(-92.491 -49.956)" fill="#ceced3"/>
    <path id="Path_12152" data-name="Path 12152" d="M320.989,203.58l-.657-.765c.25-1.111.972-1.777,2.42-2.651a6.121,6.121,0,0,1-1.763,3.416" transform="translate(-85.846 -53.642)" fill="#dadade"/>
    <path id="Path_12153" data-name="Path 12153" d="M375.1,200.863c.728-1.392,1.731-1.618,3.381-2.05a3.3,3.3,0,0,1-3.381,2.05" transform="translate(-100.522 -53.28)" fill="#e4e4e6"/>
    <path id="Path_12154" data-name="Path 12154" d="M779.7,579.127l1.291-.017v2.455c-1.25-.483-1.35-1.419-1.291-2.438" transform="translate(-208.949 -155.196)" fill="#a4a5af"/>
    <path id="Path_12155" data-name="Path 12155" d="M345.681,185.3l-.285-.015-.285.011c-.087-1.121-.173-2.242-.31-4,1.275,1.658.89,2.86.879,4.007" transform="translate(-92.404 -48.585)" fill="#b3b4bc"/>
    <path id="Path_12156" data-name="Path 12156" d="M529.8,122.685q.071-.539.143-1.079c1.054.779,1.047,1.854,1.125,3.073-1.511-.264-1.105-1.275-1.269-1.994" transform="translate(-141.982 -32.589)" fill="#f5f5f6"/>
    <path id="Path_12157" data-name="Path 12157" d="M380.236,197.8l1.719-1.021c.057.3.269.721.144.892a1.125,1.125,0,0,1-1.863.129" transform="translate(-101.9 -52.736)" fill="#fefefe"/>
    <path id="Path_12158" data-name="Path 12158" d="M403.952,382.876q-.016-.618-.034-1.236c.78-.161,1.727.053,1.692.785-.045.968-1.031.485-1.659.452" transform="translate(-108.246 -102.262)" fill="#9596a0"/>
    <path id="Path_12159" data-name="Path 12159" d="M532.421,130.1h-.328l-.328,0c-.045-.686-1.275-1.7-.069-1.942.995-.2.665,1.188.725,1.944" transform="translate(-142.348 -34.339)" fill="#f5f5f6"/>
    <path id="Path_12160" data-name="Path 12160" d="M343.077,578.968c3.4-.414,4.2,1.111,4.57,4.459,2.079,18.859,5.429,37.537,8.4,56.272,3.171,19.968,7.983,39.532,13.254,59.018.859,3.175,1.911,3.589,4.869,2.536,12.354-4.395,24.84-8.415,36.807-13.853a12.986,12.986,0,0,0,7.571-8.148c5.176-15.158,10.684-30.2,16.068-45.289.245-.687.447-1.391.73-2.062.32-.761.592-1.789,1.739-1.312,1.076.448.7,1.383.425,2.19-1.46,4.249-2.888,8.508-4.4,12.738-4.168,11.654-8.521,23.246-12.487,34.969a14.32,14.32,0,0,1-8.332,8.942,323.376,323.376,0,0,1-37.175,13.823c-3.719,1.163-3.88,2.546-2.877,5.817.87,2.831,3.12,5.639,1.418,8.939l-.772-.075c-9.634-27.66-18-55.6-21.135-84.917-1.8-16.786-4.485-33.483-5.67-50.336-.171-2.431-2-2.5-3-3.711" transform="translate(-91.942 -155.14)" fill="#2c2e43"/>
    <path id="Path_12161" data-name="Path 12161" d="M521.467,711.33q-1.906,21.248-5.022,42.352c-.163,1.1-.526,1.424-1.558,1.421-7.36-.023-14.719-.012-22.238-.012,11.28-14.043,19.443-30.163,28.1-45.988,1.741.256.812,1.378.723,2.228" transform="translate(-132.025 -190.033)" fill="#fefefe"/>
    <path id="Path_12162" data-name="Path 12162" d="M531.753,710.385c-.385-.7.149-1.689-.722-2.228l1.112-2.581c.4,2.2.316,3.529-.389,4.809" transform="translate(-142.311 -189.088)" fill="#bfc0c6"/>
    <path id="Path_12163" data-name="Path 12163" d="M177.313,574.431c.624,2.571-.365,3.035-3.077,2.309-19.9-5.33-38.812-13.277-57.573-21.6q-38.642-17.147-75.6-37.7c-8.539-4.733-13.46-10.913-15.522-20.479a506.948,506.948,0,0,1-8.988-54.672,12.483,12.483,0,0,1-.085-2.553c.168-1.607-.96-3.887.814-4.645,1.512-.646,2.588,1.463,3.657,2.531,6.807,6.8,13.924,13.256,21.215,19.529,22.831,19.639,48.458,34.884,75.291,48.315,16.868,8.444,34.09,15.948,52.17,21.372,2.615.785,3.612,2.084,3.836,4.785,1.176,14.189,2.54,28.362,3.864,42.806" transform="translate(-4.359 -116.568)" fill="#00aab2"/>
    <path id="Path_12164" data-name="Path 12164" d="M129.5,662.538c-7.114-4.175-13.9-8.153-20.674-12.135q-7.067-4.152-14.123-8.319c-1.231-.731-2.471-1.344-2.592-3.171q-2.113-31.838-4.34-63.613c1.211-.615,1.984.182,2.809.586,10.457,5.14,20.882,10.349,31.372,15.421a4.406,4.406,0,0,1,2.874,4.393c.87,21.876,2.15,43.725,4.934,65.459a7.45,7.45,0,0,1-.26,1.378" transform="translate(-23.52 -154.115)" fill="#00aab2"/>
    <path id="Path_12165" data-name="Path 12165" d="M195.676,623.491q15.071,4.411,30.065,8.781a3.149,3.149,0,0,1,2.6,2.927c3.527,21.575,7.176,43.13,10.77,64.694.617,3.7.313,3.967-3.085,2.886-10.4-3.311-20.789-6.663-31.2-9.952-1.58-.5-2.725-.91-2.924-3.016-2.05-21.782-4.235-43.552-6.369-65.326a3.958,3.958,0,0,1,.143-.993" transform="translate(-52.4 -167.09)" fill="#00aab2"/>
    <path id="Path_12166" data-name="Path 12166" d="M255.939,597.634c13.033,2.41,26.081,4.739,39.092,7.256,9.048,1.75,9,1.869,10.393,10.966,1.308,8.534,2.6,17.072,4.075,25.576.527,3.027-.2,3.464-3.148,2.862-14.411-2.939-28.872-5.635-43.314-8.417-1.692-.326-3.017-.643-3.379-2.943-1.716-10.928-3.69-21.816-5.568-32.719-.255-1.477-.737-3.138,1.849-2.582" transform="translate(-68.038 -160.131)" fill="#00aab2"/>
    <path id="Path_12167" data-name="Path 12167" d="M34.652,548.973c11.293,5.492,22.5,10.952,33.727,16.391,1.238.6,1.184,1.644,1.239,2.76.978,20.057,2.535,40.065,5.146,59.984.119.9.914,2,0,2.747-.952.775-1.839-.254-2.627-.668-6.555-3.446-13.064-6.979-19.61-10.444a4.239,4.239,0,0,1-2.26-2.628,429.579,429.579,0,0,1-15.727-66.968,5.189,5.189,0,0,1,.111-1.173" transform="translate(-9.253 -147.12)" fill="#00aab2"/>
    <path id="Path_12168" data-name="Path 12168" d="M143.572,601.393c10.414,4.372,20.554,8.679,30.747,12.862a4.194,4.194,0,0,1,2.861,3.683c2.331,13.446,2.905,27.066,4.185,40.615.766,8.109,1.494,16.224,2.408,24.316.259,2.3.22,3.269-2.438,2.108-10.219-4.461-20.485-8.814-30.74-13.194a2.813,2.813,0,0,1-2.075-2.614q-2.469-33.649-5.048-67.288a2.33,2.33,0,0,1,.1-.488" transform="translate(-38.449 -161.168)" fill="#00aab2"/>
    <path id="Path_12169" data-name="Path 12169" d="M330.321,600.2c2.335,20.789,3.762,41.687,7.39,62.321a238.9,238.9,0,0,0,13.538,47.573c.384.959,1.512,1.973.659,2.969s-2.044.1-3.072-.132q-18.306-4.16-36.609-8.334c.015-1.351.805-.95,1.538-.681q17.128,3.5,34.258,7c.337.069.684.089,1.631.206-15.046-34.574-17.4-71.178-20-107.735-.087-1.125-1.065-2.437.665-3.183" transform="translate(-83.674 -160.848)" fill="#2e3045"/>
    <path id="Path_12170" data-name="Path 12170" d="M267.735,658.8q16.449,3.194,32.9,6.389c2.978.58,5.932,1.334,8.934,1.714,1.9.24,2.83,1.02,3.1,2.863.588,3.965,1.11,7.948,1.922,11.87.514,2.48-.744,2.4-2.372,2.084-14.178-2.772-28.348-5.579-42.532-8.314-1.514-.292-2.287-.791-2.455-2.479-.409-4.108-1.022-8.2-1.616-12.284-.266-1.833.6-2.14,2.117-1.843" transform="translate(-71.171 -176.526)" fill="#2f3146"/>
    <path id="Path_12171" data-name="Path 12171" d="M269.322,687.811c1.015-1.38,2.181-.84,3.15-.669,13.4,2.359,26.771,4.833,40.18,7.114a3.529,3.529,0,0,1,3.381,3.462,72.437,72.437,0,0,0,1.7,9.308c.886,3.128.064,3.869-3.021,3.309-8.005-1.451-16.043-2.727-24.069-4.063-2.157-.359-4.33-.633-6.477-1.045-.955-.184-2.649.112-2.351-1.468.238-1.266,1.629-.512,2.492-.37q13.847,2.269,27.682,4.607c4.121.694,4.118.714,3.354-3.562-1.446-8.1-1.453-8.059-9.494-9.454q-16.693-2.9-33.363-5.923c-1.044-.187-2.2-.179-3.168-1.245" transform="translate(-72.176 -184.081)" fill="#303247"/>
    <path id="Path_12172" data-name="Path 12172" d="M244.735,618.177c3.47,18.866,6.178,37.842,8.279,56.912a460.426,460.426,0,0,1-8.978-54.584c-.132-.885-.987-1.988.7-2.328" transform="translate(-65.31 -165.666)" fill="#34364b"/>
    <path id="Path_12173" data-name="Path 12173" d="M296.855,738.094a44.112,44.112,0,0,1,9.059,1.972c-.356.725-1.213.322-1.7.754l-8.17-2.011c.092-.439.532-.486.81-.714" transform="translate(-79.337 -197.802)" fill="#525465"/>
    <path id="Path_12174" data-name="Path 12174" d="M335.188,599.264c-.912.916-.451,2.119-.665,3.181-.488-2.479-.406-5.4-4.135-5.653,1.873.394,4.626-1.4,4.8,2.471" transform="translate(-88.541 -159.913)" fill="#303247"/>
    <path id="Path_12175" data-name="Path 12175" d="M244.5,615.809c-.787.61-.5,1.542-.7,2.328a30.653,30.653,0,0,1-.967-8.8c1.4,1.944,1.427,4.235,1.666,6.469" transform="translate(-65.078 -163.298)" fill="#444659"/>
    <path id="Path_12176" data-name="Path 12176" d="M331.24,575.438a13.63,13.63,0,0,1,4.855,1.286c-2.519,1.413-4.771-.031-7.1-.665.737-.243,1.639.1,2.243-.621" transform="translate(-88.168 -154.212)" fill="#4d4e61"/>
    <path id="Path_12177" data-name="Path 12177" d="M319.726,595.26A19.909,19.909,0,0,1,313,593.447a18.609,18.609,0,0,1,7.536,1.215,1.218,1.218,0,0,1-.813.6" transform="translate(-83.882 -159.038)" fill="#2e3046"/>
    <path id="Path_12178" data-name="Path 12178" d="M272.15,732.917a26.638,26.638,0,0,1,7.318,1.682c0,.13,0,.26,0,.389-2.55.2-4.836-1.011-7.282-1.362-.191-.148-.26-.3-.208-.463s.111-.246.171-.246" transform="translate(-72.884 -196.415)" fill="#383a4f"/>
    <path id="Path_12179" data-name="Path 12179" d="M260.036,714.9c1.154,1.64.832,3.6,1.212,5.412-1.509-1.526-1.341-3.593-1.857-5.434.226-.332.441-.309.646.022" transform="translate(-69.514 -191.518)" fill="#707281"/>
    <path id="Path_12180" data-name="Path 12180" d="M292.946,590.18l-5.823-1.357q-.392-.2-.272-.417c.081-.149.163-.223.247-.223,2.014.235,4.118.113,5.843,1.485q.373.167.251.339c-.08.116-.162.173-.246.173" transform="translate(-76.866 -157.628)" fill="#383a4e"/>
    <path id="Path_12181" data-name="Path 12181" d="M307.206,741.542l1.7-.754c1.221.049,2.476-.051,3.514.8l-1.538.682-3.675-.731" transform="translate(-82.328 -198.525)" fill="#4b4c5f"/>
    <path id="Path_12182" data-name="Path 12182" d="M295.454,737.792l-.81.714L291.1,737.7q-.374-.238-.253-.482c.081-.163.163-.245.246-.245l4.364.824" transform="translate(-77.936 -197.501)" fill="#313349"/>
    <path id="Path_12183" data-name="Path 12183" d="M239.835,586.208c.255,1.6.509,3.2.9,5.668a7.046,7.046,0,0,1-1.392-5.675l.488.007" transform="translate(-64.112 -157.096)" fill="#636575"/>
    <path id="Path_12184" data-name="Path 12184" d="M295.186,590.684q0-.256-.005-.512c1.755-.105,3.53-.359,5.141.662.248.149.328.292.241.433s-.171.206-.257.206l-5.12-.789" transform="translate(-79.106 -158.132)" fill="#383a4e"/>
    <path id="Path_12185" data-name="Path 12185" d="M322.187,595.7l.813-.6a7.451,7.451,0,0,1,4.084.78c-2.084,1.04-3.459-.07-4.9-.182" transform="translate(-86.343 -159.477)" fill="#2b2d43"/>
    <path id="Path_12186" data-name="Path 12186" d="M241.869,599.154c.242,1.613.484,3.225.863,5.748-1.726-2.307-1.454-4.088-1.52-5.792a.384.384,0,0,1,.657.043" transform="translate(-64.643 -160.512)" fill="#3e4054"/>
    <path id="Path_12187" data-name="Path 12187" d="M254.374,582.544c-1.648-.626-3.656.008-5.068-1.446l-.045.061a9.031,9.031,0,0,1,5.11.772c.236.135.315.271.239.408s-.157.206-.236.206" transform="translate(-66.8 -155.72)" fill="#626474"/>
    <path id="Path_12188" data-name="Path 12188" d="M265.341,584.459l-5.114-.816-.027-.356c1.838-.581,3.463.266,5.141.765v.407" transform="translate(-69.731 -156.263)" fill="#555769"/>
    <path id="Path_12189" data-name="Path 12189" d="M282.217,735.575a1.611,1.611,0,0,0,0-.389c1.529-.351,2.867.57,4.33.654.138.657.012,1.031-.762.706a6.811,6.811,0,0,1-3.566-.971" transform="translate(-75.631 -197.002)" fill="#2f3147"/>
    <path id="Path_12190" data-name="Path 12190" d="M259.757,713.305a5.621,5.621,0,0,0-.646-.022q-.381-2.185-.761-4.37c.217-.327.427-.307.635.01a8.371,8.371,0,0,1,.772,4.382" transform="translate(-69.235 -189.919)" fill="#4e5062"/>
    <path id="Path_12191" data-name="Path 12191" d="M257.051,702.515c-.254-1.106-.509-2.212-.946-4.112,1.979,1.469,1.455,2.9,1.574,4.115-.212.357-.42.339-.628,0" transform="translate(-68.634 -187.166)" fill="#35364c"/>
    <path id="Path_12192" data-name="Path 12192" d="M307.124,592.109c1.262.006,2.6-.3,3.858.96-1.508.569-2.67-.17-3.864-.347q-.236-.208-.154-.411c.054-.135.108-.2.161-.2" transform="translate(-82.258 -158.672)" fill="#34374b"/>
    <path id="Path_12193" data-name="Path 12193" d="M305.849,591.843c0,.2,0,.409-.007.613l-3.66-.709c0-.213.009-.426.016-.639,1.267-.007,2.573-.2,3.651.735" transform="translate(-80.982 -158.406)" fill="#38394e"/>
    <path id="Path_12194" data-name="Path 12194" d="M273.112,585.3l3.653.7q.379.226.258.462c-.081.158-.163.237-.246.237a6.329,6.329,0,0,1-3.66-.77q-.356-.208-.24-.419t.235-.212" transform="translate(-73.121 -156.855)" fill="#606171"/>
    <path id="Path_12195" data-name="Path 12195" d="M242.667,579.806c-1.174.616-2.749-.728-3.745.762-.182.338-.363.323-.545,0,1.028-2.556,2.607-1.771,4.235-.7Z" transform="translate(-63.883 -155.129)" fill="#747583"/>
    <path id="Path_12196" data-name="Path 12196" d="M271.6,585.023q.012.316.005.632c-1.575.263-2.948-.47-4.386-.881v-.406c1.556-.419,2.9.6,4.381.655" transform="translate(-71.613 -156.578)" fill="#565768"/>
    <path id="Path_12197" data-name="Path 12197" d="M241.657,598.5a5.185,5.185,0,0,1-.657-.043,1.433,1.433,0,0,1-.38-1.857.632.632,0,0,1,.6-.046,1.889,1.889,0,0,1,.433,1.947" transform="translate(-64.431 -159.855)" fill="#797b88"/>
    <path id="Path_12198" data-name="Path 12198" d="M257.4,704.02q.314,0,.628,0a6.309,6.309,0,0,1,.7,3.653h-.318l-.317-.011q-.349-1.823-.7-3.646" transform="translate(-68.98 -188.671)" fill="#383a4f"/>
    <path id="Path_12199" data-name="Path 12199" d="M5.192,409.293a14.224,14.224,0,0,1-.589-2.045c-.069-.48-.411-1.324.559-1.278.291.014.55.7.824,1.073-1.007.488-.406,1.543-.794,2.249" transform="translate(-1.203 -108.796)" fill="#a8a9b1"/>
    <path id="Path_12200" data-name="Path 12200" d="M286.226,587.934l.024.64a2.828,2.828,0,0,1-2.683-.778c.974-1.141,1.8-.176,2.659.138" transform="translate(-75.993 -157.379)" fill="#606171"/>
    <path id="Path_12201" data-name="Path 12201" d="M271.512,732.693a2.064,2.064,0,0,0,.037.709,1.765,1.765,0,0,1-1.909-.493.612.612,0,0,1,.034-.591c.721-.51,1.3-.108,1.838.376" transform="translate(-72.245 -196.191)" fill="#81828f"/>
    <path id="Path_12202" data-name="Path 12202" d="M287.09,736.794l.762-.706a2.618,2.618,0,0,1,2.24.63,3.834,3.834,0,0,0,.007.728,3.577,3.577,0,0,1-3.009-.651" transform="translate(-76.938 -197.25)" fill="#6a6b7a"/>
    <path id="Path_12203" data-name="Path 12203" d="M238.34,581.195h.545q.343,1.836.684,3.673h-.244l-.244-.009a5.059,5.059,0,0,1-.742-3.665" transform="translate(-63.846 -155.755)" fill="#737483"/>
    <path id="Path_12204" data-name="Path 12204" d="M278.21,586.932a3.02,3.02,0,0,0-.013-.7c.784-.068,1.628-.29,2.09.633.07.139-.136.574-.145.572-.649-.149-1.29-.328-1.932-.505" transform="translate(-74.554 -157.086)" fill="#757785"/>
    <path id="Path_12205" data-name="Path 12205" d="M259.137,583.044l.027.355-2.921-.555a5.042,5.042,0,0,1,0-.613c1.049-.026,2.168-.3,2.9.813" transform="translate(-68.668 -156.02)" fill="#555769"/>
    <path id="Path_12206" data-name="Path 12206" d="M247.941,580.837c-1.3.1-2.678.58-3.722-.7l-.055.063c1.278.048,2.681-.572,3.731.7l.046-.061" transform="translate(-65.434 -155.458)" fill="#626474"/>
    <path id="Path_12207" data-name="Path 12207" d="M959.067,156.716l.919-.753c2.287.783,4.808,1.02,6.636,2.863a1.254,1.254,0,0,1-1.423.68l-6.132-2.79" transform="translate(-257.021 -41.797)" fill="#4e4f62"/>
    <path id="Path_12208" data-name="Path 12208" d="M278.291,560.161l1.438.6c-1.178.537-2.6.537-3.531,1.616-1-.067-2.092.336-2.94-.553,1.859,0,3.043-2.053,5.033-1.658" transform="translate(-73.231 -150.104)" fill="#2f3147"/>
    <path id="Path_12209" data-name="Path 12209" d="M41.237,198.14a2.927,2.927,0,0,1-1.771-1.784,37.744,37.744,0,0,1-4.635-5.285,11.976,11.976,0,0,1-1.973-3.3L31.6,186.714c.186-1.539,0-2.939.9-4.577,10.856-19.885,27.772-33.11,47.14-43.845,13.268-7.354,26.837-13.558,42.176-15.218,9.731-1.053,9.739-1.32,11.971,8.1C140,157.41,145.992,183.7,151.179,210.162c1.008,5.14.988,5.058-3.745,6.743-13.661,4.863-25.591,12.832-37.276,21.162-2.038,1.452-3.338,1.413-5.434.366-14.781-7.385-29.348-15.128-43.069-24.377-4.892-1.987-8.581-5.727-12.619-8.9-2.729-2.146-5.6-4.23-7.8-7.013" transform="translate(-8.47 -32.847)" fill="#fefefe"/>
    <path id="Path_12210" data-name="Path 12210" d="M25.215,170.425l-.695-1.742q-.06-1.918-.122-3.839c1.9-7.165,7.01-12.1,12.12-16.9,12.026-11.307,25.885-20.05,40.311-27.906,16-8.715,32.392-16.568,50.16-21.107,2.115-.539,4.27-.919,6.407-1.372a4.666,4.666,0,0,0,3.157-.486c1.338.333,2.935-.6,4.049.829,2.1,13.2,4.118,26.42,6.3,39.609q5.964,35.984,12.143,71.932c.449,2.605-.025,3.458-2.709,4.07a97.763,97.763,0,0,0-32.416,13.547,41.131,41.131,0,0,0-8.778,5.832l-3.786,2.834-3.777-1.759c1.631-1.236,2.969-2.335,4.391-3.312,9.924-6.827,20.1-13.23,31.252-17.909.673-.282,1.34-.583,2.025-.827,6.9-2.452,7.062-2.482,5.626-9.643-5.617-27.988-11.636-55.89-18.7-83.557-1.29-5.056-1.359-4.919-6.638-4.71-16.7.659-31.82,6.277-46.113,14.5-9.376,5.393-18.76,10.831-27.207,17.619-9.209,7.4-16.134,16.83-22.2,26.862-1.52,2.51-2.318,2.594-3.477-.01a3.611,3.611,0,0,1-1.326-2.553" transform="translate(-6.539 -26.015)" fill="#fefefe"/>
    <path id="Path_12211" data-name="Path 12211" d="M44.754,225.807c2.338.444,3.375,2.6,5.068,3.893,5.163,3.947,10.239,8.007,15.35,12.023l-.914.879A137.932,137.932,0,0,1,45.33,227.416a1.688,1.688,0,0,1-.576-1.609" transform="translate(-11.987 -60.514)" fill="#404155"/>
    <path id="Path_12212" data-name="Path 12212" d="M25.32,197.279a4.253,4.253,0,0,1,1.326,2.553h-.921c-.277-.829-1.688-1.477-.406-2.553" transform="translate(-6.643 -52.869)" fill="#4e4f62"/>
    <path id="Path_12213" data-name="Path 12213" d="M507.667,509.448c1.363,6.275-.113,12.073-.9,17.918a140.91,140.91,0,0,1-17.418,50.69,75.639,75.639,0,0,1-12.962,16.628c-1.07,1.057-2.549,2.789-3.976,1.961-1.463-.849-.5-2.878-.1-4.337,3.422-12.571,8.445-24.561,13.385-36.576,5.776-14.049,11.989-27.9,19.045-41.363.884-1.688,1.946-3.283,2.926-4.921" transform="translate(-126.392 -136.527)" fill="#fefefe"/>
    <path id="Path_12214" data-name="Path 12214" d="M46.747,373.939c2.344-.128,2.853,1.78,3.692,3.323-2.479-1.352-5.013-.706-7.381.116A57.629,57.629,0,0,0,18.2,394.551a27.869,27.869,0,0,0-2.46,4.105c-1.864-1.9-.509-3.39.458-4.528,7.705-9.064,16.92-15.927,28.587-19.079.759-.206,1.8.133,1.966-1.11" transform="translate(-3.968 -100.21)" fill="#33354a"/>
    <path id="Path_12215" data-name="Path 12215" d="M95.033,401.252l-.949.8a157.791,157.791,0,0,1-14.656-10.9c-.152-.686.048-1.007.793-.767l14.812,10.864" transform="translate(-21.273 -104.599)" fill="#414356"/>
    <path id="Path_12216" data-name="Path 12216" d="M70.149,382.51l4.542,3.559a.969.969,0,0,1-.869.776l-4.485-3.6a.909.909,0,0,1,.812-.739" transform="translate(-18.582 -102.509)" fill="#57586a"/>
    <path id="Path_12217" data-name="Path 12217" d="M68.915,381.46l-.812.739c-1.215-1.117-3.216-1.5-3.37-3.608,1.848.3,2.883,1.774,4.182,2.87" transform="translate(-17.348 -101.459)" fill="#555768"/>
    <path id="Path_12218" data-name="Path 12218" d="M75.464,388.149l.869-.776,2.838,2.229-.793.767-2.914-2.22" transform="translate(-20.224 -103.812)" fill="#515264"/>
    <path id="Path_12219" data-name="Path 12219" d="M53.32,367.066c.987.718,1.787,1.533,1.482,2.909-.585-.923-2.849-.992-1.482-2.909" transform="translate(-14.173 -98.37)" fill="#6b6d7c"/>
    <path id="Path_12220" data-name="Path 12220" d="M454.385,262.771c-.777-6.319,3.07-10.621,6.544-14.976,13.1-16.422,29.975-27.89,48.815-36.71,2.637-1.235,5.3-2.414,8.005-3.5a9.258,9.258,0,0,1,4.972-.925c4.463.74,6.057,4.285,7.04,7.95,1.132,4.223,4.112,8.762-.6,12.729a29.968,29.968,0,0,1-7.1,4.42c-16.935,7.568-32.23,17.987-47.979,27.613a52.9,52.9,0,0,0-9.471,7.983c-1.9,1.9-3.718,4.94-6.928,3.6-3.466-1.449-3.163-5.1-3.3-8.179" transform="translate(-121.744 -55.361)" fill="#2b2d43"/>
    <path id="Path_12221" data-name="Path 12221" d="M639.4,296.752l-.059-.106c.727-4.344,3.537-7.242,6.82-9.815,10.254-6.721,18.09,1.626,18.958,9.774a8.548,8.548,0,0,1-2.919,7.527c-5.363,4.943-15.8,5.14-21.316.435-3.215-2.743-3.409-3.766-1.484-7.814" transform="translate(-171.021 -76.21)" fill="#fefefe"/>
    <path id="Path_12222" data-name="Path 12222" d="M637.441,290.068c-.845,5.381.261,7.215,5.549,9.174a17.378,17.378,0,0,0,12.468-.078c5.9-2.189,8.108-6.4,6.231-11.961-2.278-6.753-7.485-10.015-13.283-8.227a42.462,42.462,0,0,0-4.339,1.866c-.766.212-1.021-.1-.857-.838,4.208-3.44,8.953-4.654,13.824-2.013,5.2,2.821,7.707,7.724,7.683,13.571-.023,5.636-5.535,10.327-12.47,11.145-12.638,1.49-21.771-6.933-21.375-19.714.49-15.831,15.22-26.972,29.883-22.6-.3,1.73-1.43.847-2.315.73-14.586-.242-22.984,6.287-25.1,19.56a18.584,18.584,0,0,0,2.075,11.643c.836-.684.643-2.2,2.023-2.255" transform="translate(-169.065 -69.526)" fill="#2d2f45"/>
    <path id="Path_12223" data-name="Path 12223" d="M476.153,406.755c-5.364-.158-10.679-.312-16-.19-.892.02-1.854-.135-1.905-1.2-.044-.9.829-1.091,1.589-1.064a81.492,81.492,0,0,1,16.318,2.452" transform="translate(-122.805 -108.349)" fill="#3e3f53"/>
    <path id="Path_12224" data-name="Path 12224" d="M668.538,261.471c.772-.242,1.735.12,2.315-.73,4.792,1.214,6.865,3.05,7.075,6.81-2.044-3.85-5.643-5.089-9.39-6.08" transform="translate(-179.162 -69.876)" fill="#46475b"/>
    <path id="Path_12225" data-name="Path 12225" d="M645.56,287.533l.858.838c-3,2.472-4.936,5.729-6.685,9.12-.75-4.894,2.768-7.292,5.828-9.958" transform="translate(-171.415 -77.056)" fill="#46475b"/>
    <path id="Path_12226" data-name="Path 12226" d="M603.528,381.888l-.763-.734,3.574-3.511.722.618a8.117,8.117,0,0,1-3.533,3.628" transform="translate(-161.536 -101.205)" fill="#595a6b"/>
    <path id="Path_12227" data-name="Path 12227" d="M609.627,346.351l.844-.722a7.34,7.34,0,0,1,3.148,2.738l-.644.687-3.347-2.7" transform="translate(-163.374 -92.625)" fill="#4f5062"/>
    <path id="Path_12228" data-name="Path 12228" d="M483.164,407.909c2.639-.731,3.908.449,5.405.594-1.712.93-3.132.105-5.405-.594" transform="translate(-129.484 -109.253)" fill="#565768"/>
    <path id="Path_12229" data-name="Path 12229" d="M611.261,373.624a2.35,2.35,0,0,1-1.853,2.069c-.01-1.53.966-2.31,1.765-3.18a.984.984,0,0,1,.088,1.11" transform="translate(-163.316 -99.83)" fill="#4a4c5f"/>
    <path id="Path_12230" data-name="Path 12230" d="M611.907,372.605l-.088-1.11c.316-.733.631-1.466,1.2-2.785a3.588,3.588,0,0,1-1.11,3.9" transform="translate(-163.962 -98.811)" fill="#46475b"/>
    <path id="Path_12231" data-name="Path 12231" d="M207.95,403.15c.081-2.049,1.455-1.1,2.408-.594,5.36,2.869,10.881,5.39,16.486,7.731a223.572,223.572,0,0,0,50.61,14.786c1.47.238,2.853.384,3.077,2.394,1.727,15.445,7.9,29.458,14.047,43.486.733,1.673,2.76,3.678,1.512,5.109-1.088,1.247-3.344-.463-5.019-.995-22.935-7.292-45.366-15.919-67.5-25.346a8.23,8.23,0,0,1-5.462-6.358c-3.009-12.648-6.395-25.207-9.633-37.8-.182-.706-.311-1.426-.523-2.413" transform="translate(-55.729 -107.703)" fill="#00aab2"/>
    <path id="Path_12232" data-name="Path 12232" d="M77.826,339.978c.42,1.669-.886,1.554-2.539.748-11.412-5.563-22.175-12.107-31.5-20.833a4.234,4.234,0,0,1-1.408-2.446c-1.845-10.037-3.745-20.064-5.615-30.1-.15-.8-.561-1.8.491-2.243.841-.351,1.183.569,1.678,1.053,9.7,9.488,20.395,17.551,32.976,22.877,1.023.433,1.089,1.129,1.225,1.975,1.507,9.359,3.029,18.716,4.691,28.966" transform="translate(-9.798 -76.385)" fill="#00aab2"/>
    <path id="Path_12233" data-name="Path 12233" d="M71.644,290.836c.269,1.945-.372,2.443-2.208,1.526a139.793,139.793,0,0,1-32.551-22.59c-1.222-1.13-1.277-2.591-1.5-4q-1.862-11.895-3.6-23.81c-.146-.994-.859-2.406.544-2.878,1.031-.347,1.464,1.037,2.124,1.695A137.831,137.831,0,0,0,66.932,265.29c1,.53,1.576.965,1.71,2.013q1.5,11.766,3,23.533" transform="translate(-8.436 -64.059)" fill="#00aab2"/>
    <path id="Path_12234" data-name="Path 12234" d="M176.293,409.131A76.164,76.164,0,0,1,164.41,404.2c-17.393-8.457-34.341-17.681-50.189-28.843a23.432,23.432,0,0,1-9.482-13.735c-6.62-24.689-11-49.821-15.159-75-.231-1.4-.318-2.876,1-3.6s1.744.944,2.528,1.556c7.794,6.088,16.455,10.8,24.986,15.7,11.271,6.474,22.466,13.267,34.637,17.8,5.612,2.088,7.1,4.755,7.954,10.352a583.1,583.1,0,0,0,15.066,70.912c.692,2.443,1.652,4.812,2.539,7.2s.551,2.9-2,2.6" transform="translate(-23.97 -75.798)" fill="#2c2e44"/>
    <path id="Path_12235" data-name="Path 12235" d="M270.133,376.324c.5,3.371-1.33,2.722-2.9,2.563-14.046-1.423-27.343-5.714-40.413-10.744-8.043-3.1-15.918-6.624-23.883-9.923a4.32,4.32,0,0,1-2.911-3.328c-2.567-11-5.311-21.964-7.954-32.949-.184-.761-.976-1.635-.191-2.366.941-.877,1.817.062,2.643.432,16.186,7.256,32.243,14.812,48.963,20.815a187.266,187.266,0,0,0,20.909,6.36c1.529.354,2.235.885,2.428,2.551,1.052,9.066,2.243,18.116,3.312,26.59" transform="translate(-51.33 -85.546)" fill="#2d2f45"/>
    <path id="Path_12236" data-name="Path 12236" d="M275.558,415.4a174.213,174.213,0,0,1-43.405-12.261c-7.509-3.153-14.816-6.725-22-10.569a5.363,5.363,0,0,1-3.045-3.787c-.692-3.079-1.651-6.1-2.5-9.139-.261-.93-.829-2.04-.012-2.747.845-.731,1.841.2,2.679.523,9.981,3.813,19.932,7.7,29.9,11.558,11.067,4.28,22.738,6.173,34.28,8.54,1.995.409,2.887,1.08,3.222,3.127.666,4.075,1.589,8.111,2.518,12.137.508,2.2-.108,3.066-1.634,2.617" transform="translate(-54.716 -100.931)" fill="#2d2f45"/>
    <path id="Path_12237" data-name="Path 12237" d="M36.149,215.711c1.5,1.82,3.708,3.092,4.352,5.582-2.706-.623-3.612-3.026-4.951-5-.228-.635,0-.8.6-.579" transform="translate(-9.504 -57.783)" fill="#545668"/>
    <path id="Path_12238" data-name="Path 12238" d="M35.5,214.644l-.6.579c-1.143-.923-2.325-1.828-1.657-3.587a6.006,6.006,0,0,1,2.255,3.008" transform="translate(-8.858 -56.717)" fill="#5d5f70"/>
    <path id="Path_12239" data-name="Path 12239" d="M833.8,572.17c-1.316,26.054-5.1,51.76-9.994,77.331a6.059,6.059,0,0,1-3,4.256c-8.978,5.708-19.011,8.527-29.234,10.8-8.582,1.907-8.565,1.834-6.584-6.7,6.39-27.513,11.012-55.289,11.973-83.572.111-3.28,1.15-4.553,4.405-5.2,9.879-1.959,19.685-4.292,29.5-6.565,2.193-.508,3.2-.193,2.977,2.358-.211,2.413-.045,4.858-.045,7.288" transform="translate(-210.08 -150.696)" fill="#00aab2"/>
    <path id="Path_12240" data-name="Path 12240" d="M940.541,514.5a102.484,102.484,0,0,1-10.588,35.815,5.125,5.125,0,0,1-2.962,2.447q-30.3,12.517-60.566,25.11c-.818.338-1.79,1.312-2.646.54s-.093-1.813.173-2.725c2.364-8.114,1.838-16.421,1.43-24.679-.182-3.693.649-5.314,4.684-6.3,17.108-4.2,32.775-12.074,48.335-20.094a194.829,194.829,0,0,0,19.9-11.455c.568-.383,1.072-1.176,1.886-.652.753.484.478,1.285.356,2" transform="translate(-231.381 -137.299)" fill="#00aab2"/>
    <path id="Path_12241" data-name="Path 12241" d="M847.275,658c-1.956-.155-1.17-1.431-.949-2.378q2.609-11.16,5.271-22.308c1.938-8.14,3.915-16.271,5.819-24.419a4.746,4.746,0,0,1,3.218-3.913c8.321-3.008,16.578-6.188,24.852-9.326.993-.376,2.06-1.277,2.995-.459.806.706.061,1.8-.149,2.725q-4.966,21.826-9.922,43.653c-.324,1.421-.689,2.662-2.319,3.385-9.305,4.126-18.553,8.382-27.821,12.594-.328.149-.659.294-.995.444" transform="translate(-226.716 -159.418)" fill="#00aab2"/>
    <path id="Path_12242" data-name="Path 12242" d="M897.359,632.722c2.874-14.314,5.528-27.412,8.1-40.527a3.02,3.02,0,0,1,2.068-2.281c8.281-3.784,16.59-7.51,24.847-11.344,2.553-1.186,2.829-.413,2.55,2.069-1.582,14.075-6.978,26.979-12.044,39.99a3.76,3.76,0,0,1-2.028,1.98Q910.4,627.78,899.972,633c-1.76.886-2.83.978-2.613-.279" transform="translate(-240.477 -154.905)" fill="#00aab2"/>
    <path id="Path_12243" data-name="Path 12243" d="M803.476,499.817c0-7.659.108-15.321-.054-22.976-.064-3,1.176-4.161,3.952-4.973,24.484-7.152,48.761-14.923,72.216-25.042,19.616-8.463,38.321-18.45,54.47-32.7.674-.594,1.235-1.951,2.29-1.4,1.176.61.526,1.981.354,2.957q-3.684,21.009-7.469,42c-1.132,6.339-2.353,12.665-3.331,19.029a6.615,6.615,0,0,1-3.446,5.119c-28,16.91-58.247,28.313-89.747,36.62-8.81,2.323-17.7,4.344-26.566,6.451-4.644,1.1-4.58,1.054-4.528-3.923.073-7.054.019-14.11.019-21.164h1.84" transform="translate(-214.823 -110.573)" fill="#2c2e44"/>
    <path id="Path_12244" data-name="Path 12244" d="M890,206.142a817.389,817.389,0,0,1-10.563,85.422c-2.3,13.169-4.976,26.263-7.723,39.344a7.639,7.639,0,0,1-3.966,5.617A166.513,166.513,0,0,1,820.8,354.978c-2.908.641-3.383.116-2.52-2.75,10.879-36.089,17.636-72.986,21.419-110.454.635-6.295,1.477-12.575,1.839-18.884.147-2.56,1.184-3.5,3.374-4.316,13.651-5.089,27.255-10.307,40.869-15.5,4.413-1.682,4.407-1.7,4.208,3.063" transform="translate(-219.189 -54.148)" fill="#2c2e44"/>
    <path id="Path_12245" data-name="Path 12245" d="M962.892,177a232.979,232.979,0,0,1-5.355,38.611,4.376,4.376,0,0,1-3.011,3.623c-10.35,3.81-20.679,7.685-30.93,11.75-3.206,1.271-3.425.113-3.077-2.577q2.239-17.34,4.3-34.7a3.194,3.194,0,0,1,2.436-3.092c11.962-4.247,23.228-9.821,33.148-17.875.538-.437,1.086-1.151,1.887-.83,1.086.435.537,1.463.583,2.233.072,1.211.019,2.43.019,2.859" transform="translate(-246.658 -46.047)" fill="#2e2f45"/>
    <path id="Path_12246" data-name="Path 12246" d="M904.5,354.621c-1.684.266-2.221-.335-1.815-2.031q5.385-22.482,10.679-44.986a2.373,2.373,0,0,1,2.121-2.072c8.571-1.725,17.144-3.449,25.68-5.335,2.3-.507,2.586.329,2.159,2.185q-3.952,17.21-7.888,34.426a3.534,3.534,0,0,1-1.309,2.1c-8.319,6.613-17.013,12.554-27.491,15.283-.7.183-1.425.29-2.138.432" transform="translate(-241.877 -80.411)" fill="#2e3045"/>
    <path id="Path_12247" data-name="Path 12247" d="M919.521,264.3a9.934,9.934,0,0,0,.334-3.133c-1.138-7.965,3.258-10.824,10.223-12.6,7.983-2.031,15.7-5.12,23.508-7.823,2.278-.789,3.435-.779,2.872,2.225-.965,5.136-1.819,10.3-2.408,15.494-.242,2.131-1.2,2.841-3.055,3.28-9.224,2.185-18.428,4.458-27.639,6.7-4.173,1.015-4.173,1.015-3.834-4.145" transform="translate(-246.388 -64.401)" fill="#2f3146"/>
    <path id="Path_12248" data-name="Path 12248" d="M919.669,293.833c-1.752.273-2.37-.182-2.128-1.516.043-.239.089-.478.125-.718,1.606-10.908,1.6-10.923,12.293-13.6,6.47-1.619,12.99-3.055,19.416-4.836,2.787-.772,2.962.265,2.419,2.421a3.389,3.389,0,0,0-.147.714c-.245,8.639-4.759,12.508-13.311,13.364-6.464.646-12.777,2.8-18.666,4.169" transform="translate(-245.879 -73.138)" fill="#303247"/>
    <path id="Path_12249" data-name="Path 12249" d="M503.35,324.94c1.238.314,2.432.548,3.58.919,4.11,1.331,6.117,4.293,5.8,8.557-.153,2.051-.365,4.1-.6,6.144-.374,3.2-2.857,4.99-6.581,4.78a17.879,17.879,0,0,1-15.524-12.32c-1.717-6.016-2.654-12.111-1.006-18.33,2.852-10.76,11.732-17.9,22.914-17.849,9.014.041,17.075,3.323,24.285,8.654a10.919,10.919,0,0,1,4.331,6.557c.31,1.45.312,3.091-1.582,3.545-1.87.448-2.632-.646-2.781-2.41a5.521,5.521,0,0,0-1.591-3.2c-5.895-6.536-21.622-10.443-29.817-7.291a14.7,14.7,0,0,0-7.748,6c3.683,1.1,6.426,3.417,9.193,5.736,2,1.676,2.075,3.257.469,5.288a17.136,17.136,0,0,0-3.336,5.218" transform="translate(-130.821 -79.551)" fill="#2b2d43"/>
    <path id="Path_12250" data-name="Path 12250" d="M393.627,327.894c4.549,3.8,10.365,6.745,5.369,13.711,5.652.954,6.23,1.566,6.836,6.913a19.966,19.966,0,0,1-.343,6.17c-1.266,6.415-6.212,8.593-11.594,4.861-5.333-3.7-7.518-9.371-8.924-15.4a28.309,28.309,0,0,1-.621-4.7c-.711-11.7,6.529-18.556,18.047-16.876a30.571,30.571,0,0,1,16.183,7,9.352,9.352,0,0,1,3.333,5.1,2.409,2.409,0,0,1-1.529,2.962c-1.412.556-2.179-.242-2.831-1.5-3.569-6.878-16.221-11.367-23.926-8.244" transform="translate(-102.989 -86.378)" fill="#2b2d43"/>
    <path id="Path_12251" data-name="Path 12251" d="M95.334,585.042c9.146,4.63,17.657,8.953,26.187,13.237,1.055.53,1.748,1.068,1.7,2.424-.1,2.746-.031,5.5-.031,8.826-9.036-4.917-17.6-9.584-26.175-14.238-1.382-.75-.992-2.09-1.112-3.232-.227-2.16-.356-4.331-.566-7.017" transform="translate(-25.549 -156.786)" fill="#fdfdfe"/>
    <path id="Path_12252" data-name="Path 12252" d="M226.9,654.174c-6.905-2.03-13.611-4.016-20.329-5.961a2.211,2.211,0,0,1-1.736-2.35,72.487,72.487,0,0,0-.878-7.6c-.317-1.81-.048-2.538,1.954-1.946,6.047,1.788,12.118,3.5,18.171,5.267.9.263,1.893.479,1.925,1.8.087,3.49,1.209,6.9.893,10.79" transform="translate(-54.629 -170.474)" fill="#fefefe"/>
    <path id="Path_12253" data-name="Path 12253" d="M228.711,670.777c-7.085-2.156-13.813-4.128-20.487-6.269-3.039-.975-1.613-3.88-2.872-6.6,7.728,2.211,14.751,3.912,21.517,6.333,2.17.776,1.394,3.978,1.842,6.541" transform="translate(-55.033 -176.312)" fill="#fcfcfd"/>
    <path id="Path_12254" data-name="Path 12254" d="M229.838,682.256c-6.763-1.559-13.253-3.885-19.842-5.883a2.747,2.747,0,0,1-1.93-3.692c.463-1.537,1.872-.184,2.756.051,5.388,1.43,10.714,3.1,16.117,4.459,2.861.721,3.765,2.214,2.9,5.065" transform="translate(-55.717 -180.078)" fill="#fcfcfc"/>
    <path id="Path_12255" data-name="Path 12255" d="M67.706,591.252c-6.8-3.4-13.166-6.574-19.508-9.8a2.316,2.316,0,0,1-1.082-1.347c-1.391-5.876-2.712-11.768-4.246-18.51,6.453,3.556,12.055,7.063,18.013,9.792,4.542,2.08,6.617,4.91,6.306,9.9-.194,3.115.3,6.272.517,9.963" transform="translate(-11.489 -150.502)" fill="#fefefe"/>
    <path id="Path_12256" data-name="Path 12256" d="M179.064,680.42c-7.7-3.492-14.956-6.8-22.229-10.07a2.409,2.409,0,0,1-1.548-2.2c-.646-6.636-1.347-13.267-2.08-20.392,7.889,2.944,15.349,5.724,22.8,8.516a1.958,1.958,0,0,1,1.383,1.9c.509,7.253,1.08,14.5,1.67,22.254" transform="translate(-41.058 -173.592)" fill="#fefefe"/>
    <path id="Path_12257" data-name="Path 12257" d="M174.628,631.323c-7.152-2.734-14.131-5.429-21.136-8.055a2.263,2.263,0,0,1-1.74-2.044c-.253-2.737-.515-5.474-.826-8.778,7.908,3.033,15.232,5.845,22.559,8.65,1.172.449,1.135,1.449,1.139,2.423.012,2.416,0,4.831,0,7.8" transform="translate(-40.447 -164.13)" fill="#fdfdfe"/>
    <path id="Path_12258" data-name="Path 12258" d="M181.38,700.1c-8.353-3.653-15.989-6.99-23.621-10.334-2.984-1.307-1.266-3.928-2.146-6.585,8.436,3.51,16.308,6.58,23.976,10.092,2.548,1.167.7,4.161,1.79,6.827" transform="translate(-41.703 -183.086)" fill="#fdfdfd"/>
    <path id="Path_12259" data-name="Path 12259" d="M175.1,648.051c-7.182-2.716-14.3-5.411-21.425-8.1-2.979-1.125-1.094-3.8-2.309-6.069,2.849.209,4.806,1.427,6.871,2.2,4.429,1.657,8.827,3.4,13.243,5.086,4.287,1.641,4.29,1.632,3.62,6.883" transform="translate(-40.566 -169.874)" fill="#fcfcfd"/>
    <path id="Path_12260" data-name="Path 12260" d="M268.192,661.307c13.876,2.691,27.308,5.335,40.764,7.857,1.717.322,2.533.944,2.747,2.685a64.071,64.071,0,0,0,1.375,8.249c.584,2.263-.212,2.489-2.086,2.116-9.037-1.8-18.084-3.559-27.126-5.338-4.047-.8-8.086-1.633-12.14-2.387-1.16-.216-1.975-.43-2.116-1.908-.344-3.608-.891-7.2-1.419-11.274" transform="translate(-71.873 -177.224)" fill="#fefefe"/>
    <path id="Path_12261" data-name="Path 12261" d="M177.1,408.416a149.012,149.012,0,0,1-19.724-8.933,380.771,380.771,0,0,1-40.216-23.551A24.543,24.543,0,0,1,106.8,361.169c-4.777-18.111-8.289-36.477-11.616-54.887-1.121-6.207-2.133-12.433-3.329-19.436,7.917,5.436,15.412,10.073,23.084,14.416,12.364,7,24.542,14.452,37.812,19.574,4.9,1.89,6.114,4.562,6.833,9.212a599.081,599.081,0,0,0,14.508,68.776c.835,3.011,1.865,5.969,3.006,9.592" transform="translate(-24.617 -76.872)" fill="#fefefe"/>
    <path id="Path_12262" data-name="Path 12262" d="M194.709,322.732c10.152,4.484,19.547,8.71,29,12.792,12.946,5.587,26.082,10.67,39.8,14.06,1.654.408,2.415,1,2.612,2.818.814,7.5,1.73,14.983,2.8,22.446.4,2.816-.214,3.443-3.134,3.009-20.666-3.066-39.676-11.066-58.7-19.141a8.118,8.118,0,0,1-5.317-6.481c-2.143-9.578-4.553-19.1-7.069-29.5" transform="translate(-52.18 -86.489)" fill="#fefefe"/>
    <path id="Path_12263" data-name="Path 12263" d="M207.206,379.891c7.5,2.938,14.424,5.5,21.231,8.352,13.648,5.713,27.944,9.034,42.419,11.687,2.072.38,2.85,1.162,3.115,3.183a69.608,69.608,0,0,0,1.737,8.568c.572,2.184.145,2.714-2.181,2.348a169.013,169.013,0,0,1-35.721-10c-8.135-3.206-16-7-23.787-10.984-2.908-1.487-4.529-3.311-5.069-6.429-.348-2.009-1.014-3.963-1.744-6.72" transform="translate(-55.529 -101.807)" fill="#fefefe"/>
    <path id="Path_12264" data-name="Path 12264" d="M934.7,421.01q-3.5,20.3-7,40.6c-.911,5.271-1.9,10.531-2.747,15.811A6.6,6.6,0,0,1,921.5,482.5c-25.476,15.363-52.908,26.013-81.427,34.081-10.875,3.077-21.855,5.732-32.89,8.179-2.414.536-3.121.4-2.989-2.352q1.044-21.709,1.673-43.435c.069-2.4,1.1-3,3.078-3.593,25.114-7.57,50.113-15.47,74.185-26.02,18.117-7.939,35.311-17.411,50.638-30.039,1.416-.044,1.253.779.93,1.691" transform="translate(-215.513 -112.373)" fill="#fefefe"/>
    <path id="Path_12265" data-name="Path 12265" d="M982.146,420.608c-.188-.63-.206-1.354-.93-1.691.25-.541.864-1.334,1.164-1.036.853.842.4,1.856-.234,2.727" transform="translate(-262.957 -111.971)" fill="#dddee1"/>
    <path id="Path_12266" data-name="Path 12266" d="M820.77,353.86a569.8,569.8,0,0,0,18.586-86.289c1.987-14.093,3.62-28.236,4.606-42.439a4.079,4.079,0,0,1,3.089-4.161q19.45-7.247,38.789-14.787c3.037-1.192,3.119-.126,2.955,2.426a772.432,772.432,0,0,1-9.332,77.486c-2.58,15.467-5.545,30.86-9,46.16a4.278,4.278,0,0,1-2.063,3.162,160.78,160.78,0,0,1-46.5,18.605,4.651,4.651,0,0,1-1.131-.162" transform="translate(-219.959 -55.125)" fill="#fefefe"/>
    <path id="Path_12267" data-name="Path 12267" d="M923.1,230.611c.655-5.761,1.23-11.028,1.857-16.289.69-5.79,1.427-11.575,2.148-17.361.21-1.687.359-3.16,2.492-3.9a110.417,110.417,0,0,0,31.063-16.445,4.288,4.288,0,0,1,1.143-.387,206.6,206.6,0,0,1-5.372,40.03,2.847,2.847,0,0,1-1.859,2.4c-10.313,3.886-20.606,7.821-31.473,11.956" transform="translate(-247.384 -47.228)" fill="#fefefe"/>
    <path id="Path_12268" data-name="Path 12268" d="M942.266,302.669c-2.662,11.709-5.178,22.828-7.743,33.934a3.462,3.462,0,0,1-1.083,1.821c-7.829,6.256-16.026,11.878-25.868,14.559a15.682,15.682,0,0,1-2.158.228c2.353-10.058,4.628-19.824,6.926-29.585,1.057-4.491,2.245-8.953,3.2-13.465a2.76,2.76,0,0,1,2.578-2.484c7.847-1.557,15.67-3.236,24.15-5.008" transform="translate(-242.643 -81.113)" fill="#fefefe"/>
    <path id="Path_12269" data-name="Path 12269" d="M955.312,243.135c-.819,5.559-1.616,10.692-2.308,15.839-.2,1.485-1.309,1.636-2.317,1.887-8.843,2.2-17.7,4.357-26.543,6.549-1.42.353-2.132.431-2.091-1.586.228-11.468.162-11.468,11.114-15.18,7.226-2.449,14.453-4.9,22.146-7.509" transform="translate(-247.101 -65.158)" fill="#fefefe"/>
    <path id="Path_12270" data-name="Path 12270" d="M950.787,275.685c-.789,3.45-1.435,6.265-2.076,9.081-.282,1.237-1.115,1.647-2.314,1.919q-11.882,2.692-23.723,5.556c-1.78.428-2.6.122-1.967-1.862a1.239,1.239,0,0,0,.089-.352c.068-5.446,2.552-8.182,8.21-9.094,7.139-1.15,14.11-3.346,21.782-5.247" transform="translate(-246.684 -73.881)" fill="#fefefe"/>
    <path id="Path_12271" data-name="Path 12271" d="M99.5,299.647c1.328-.712,2.1.375,2.93.906a577.574,577.574,0,0,0,50.326,28.71,6.035,6.035,0,0,1,3.589,4.924c3.723,22.453,8.991,44.562,14.909,66.524.292,1.083,1.431,2.845.116,3.17-1.631.4-1.484-1.77-1.811-2.916a669,669,0,0,1-15.02-66.116,5.263,5.263,0,0,0-3.266-4.238c-16.873-8.661-33.347-18.025-49.315-28.264-.993-.637-2.651-.857-2.458-2.7" transform="translate(-26.661 -80.24)" fill="#2e3046"/>
    <path id="Path_12272" data-name="Path 12272" d="M153.4,364.844A5.89,5.89,0,0,1,150.082,368a5.676,5.676,0,0,1,3.322-3.154" transform="translate(-40.221 -97.775)" fill="#8e8f9a"/>
    <path id="Path_12273" data-name="Path 12273" d="M136.949,381.606l2.982-3.3c-.125,1.489-.63,2.635-2.982,3.3" transform="translate(-36.701 -101.381)" fill="#868793"/>
    <path id="Path_12274" data-name="Path 12274" d="M128.608,391.349c.763-.716,1-1.844,2.168-1.762l.318.275c-.657.679-.916,2.025-2.487,1.487" transform="translate(-34.466 -104.405)" fill="#8e8f9a"/>
    <path id="Path_12275" data-name="Path 12275" d="M266.891,376.929c-2.06-3.221-2.274-6.912-2.345-10.354-.127-6.145-2.464-8.972-8.685-10.732-17.746-5.023-34.757-12.176-51.4-20.146-.436-.209-.863-.44-1.3-.655-.645-.319-1.515-.631-1.083-1.528.453-.941,1.278-.349,1.886-.07,4.074,1.872,8.1,3.844,12.2,5.663a382.465,382.465,0,0,0,45.682,16.849c2.228.666,3.408,1.547,3.6,4.067.431,5.634,1.833,11.181,1.439,16.906" transform="translate(-54.125 -89.241)" fill="#2f3147"/>
    <path id="Path_12276" data-name="Path 12276" d="M214.539,358.708c-.078-1.995.863-3.625,3.765-3.524,3.339.116,6.594,3.64,6.515,7.107-.062,2.73-2.863,5.564-5.37,5.435-2.665-.137-4.894-3.962-4.91-9.018" transform="translate(-57.493 -95.185)" fill="#35374b"/>
    <path id="Path_12277" data-name="Path 12277" d="M233.421,366.4a3.575,3.575,0,0,1,3.809-3.588c2.8-.1,6.3,3.961,6.3,7.335.006,2.563-1.179,4.24-3.906,4.235-2.864-.005-6.194-4.18-6.2-7.982" transform="translate(-62.555 -97.231)" fill="#36374c"/>
    <path id="Path_12278" data-name="Path 12278" d="M895.576,215.705c-1.612,13.189-3.307,26.948-4.956,40.711a3.053,3.053,0,0,1-2.055,2.684,336.542,336.542,0,0,1-33.4,12.478c-2.16.7-2.35.323-1.9-1.946a224.847,224.847,0,0,0,4.686-41.982c.018-2,1.051-2.1,2.285-2.528q14.974-5.18,29.938-10.387a19.092,19.092,0,0,0,3.016-1.263c2.01-1.117,2.99-.867,2.382,2.233" transform="translate(-228.614 -57.046)" fill="#2e3045"/>
    <path id="Path_12279" data-name="Path 12279" d="M218.93,357.585c2.313.067,5.028,3.235,4.8,5.418-.2,1.927-1.561,3.521-3.241,3.285-3.3-.463-2.991-3.543-3.295-5.99-.184-1.483.15-2.677,1.733-2.713" transform="translate(-58.195 -95.83)" fill="#fafafa"/>
    <path id="Path_12280" data-name="Path 12280" d="M237.848,365.53c1.782-.084,4.543,2.913,4.616,5.226.043,1.356-.494,2.419-1.948,2.573-1.79.188-4.328-3.094-4.388-5.542-.027-1.13-.045-2.26,1.719-2.257" transform="translate(-63.279 -97.958)" fill="#f7f7f7"/>
    <path id="Path_12281" data-name="Path 12281" d="M856.5,270.473c.836-6.368,1.626-12.346,2.405-18.324.942-7.231,1.749-14.474,2-21.769.04-1.162-.253-2.29,1.45-2.858,10.662-3.562,21.28-7.256,32.307-11.042-.854,7.166-1.662,14.017-2.491,20.866-.7,5.787-1.523,11.561-2.1,17.36a5.073,5.073,0,0,1-3.565,4.752c-9.726,4.066-19.6,7.695-30.008,11.015" transform="translate(-229.534 -58.015)" fill="#fefefe"/>
  </g>
</svg>
