<svg id="Group_301" data-name="Group 301" xmlns="http://www.w3.org/2000/svg" xmlns:xlink="http://www.w3.org/1999/xlink" width="84.719" height="115.481" viewBox="0 0 84.719 115.481">
  <defs>
    <clipPath id="clip-path">
      <rect id="Rectangle_240" data-name="Rectangle 240" width="84.719" height="115.481" fill="#007176"/>
    </clipPath>
  </defs>
  <g id="Group_300" data-name="Group 300" clip-path="url(#clip-path)">
    <path id="Path_12053" data-name="Path 12053" d="M22.99,0H74.153c2.276.987,2.892,2.789,2.885,5.163C76.985,24.476,77.012,43.79,77,63.1a2.794,2.794,0,0,0,.725,2.025c1.992,2.248,3.939,4.538,5.874,6.837a3.8,3.8,0,0,1-.433,5.765c-2.772,2.42-5.58,4.8-8.376,7.193a4.083,4.083,0,0,1-3.346.981,1.3,1.3,0,0,0-.9.165C68.583,87.7,66.663,89.361,64.749,91c2.652,4.659,1.134,8.131-4.071,9.541a.82.82,0,0,0-.524.428,5.775,5.775,0,0,1-5.312,4.579,17.446,17.446,0,0,1-2.492,3.533,16.954,16.954,0,0,1-3.822,1.849,5.527,5.527,0,0,1-4.517,4.418,5.768,5.768,0,0,1-5.995-2.47c-.509-.65-1.1-1.239-1.6-1.894a1.138,1.138,0,0,0-1.327-.471,5.659,5.659,0,0,1-7.014-4.889,1.448,1.448,0,0,0-.823-.931,5.553,5.553,0,0,1-4.1-4.735c-.1-.7-.411-.921-1.029-1.2a6.689,6.689,0,0,1-2.651-1.769,20.7,20.7,0,0,1-1.82-3.835,5.677,5.677,0,0,1-4.159-7.7,2.419,2.419,0,0,0-1.925-2.833,4.134,4.134,0,0,1-3.407-1.647c-2.11-2.5-4.288-4.933-6.361-7.458A24.66,24.66,0,0,1,0,70.6V69.469a6.763,6.763,0,0,1,2.39-3.161c1.51-1.235,2.942-2.568,4.468-3.782a2.283,2.283,0,0,0,.9-2.018c-.023-14.535-.007-29.069-.029-43.6a5.124,5.124,0,0,1,1.617-3.909c3.645-3.576,7.21-7.232,10.852-10.81A30,30,0,0,1,22.99,0m2.055,3.9c0,3.243.019,6.358-.006,9.473a3.826,3.826,0,0,1-3.879,3.965c-.675.025-1.352.006-2.028.006H11.7V58.308c.489-.4.838-.677,1.176-.967q4.663-4,9.323-7.994c2.08-1.78,4.223-1.647,6.01.407,2.1,2.409,4.109,4.891,6.253,7.255,1.549,1.709,2.538,3.457,1.279,5.8,1.316.351,2.517.638,3.7,1a1.416,1.416,0,0,0,1.608-.37,6.561,6.561,0,0,1,4.8-1.87c1.137-.021,2.273-.143,3.477-.224a4.2,4.2,0,0,1,1.426-5.325c2.628-2.184,5.2-4.442,7.788-6.669,2.1-1.807,4.269-1.647,6.092.471q3.9,4.526,7.776,9.067c.174.2.388.369.687.65V3.9Zm9.508,95.292a1.555,1.555,0,0,0,.312.139,5.748,5.748,0,0,1,4.116,8.024,1.01,1.01,0,0,0,.13.867c.746.941,1.525,1.859,2.346,2.736a1.826,1.826,0,0,0,2.623.233,1.886,1.886,0,0,0,.219-2.717c-.431-.568-.952-1.071-1.348-1.659a1.844,1.844,0,0,1,.326-2.45,1.9,1.9,0,0,1,2.561.04c.437.407.8.892,1.2,1.34.92,1.029,1.968,1.2,2.863.462a1.975,1.975,0,0,0,.049-2.9c-.693-.84-1.424-1.649-2.115-2.49a1.934,1.934,0,1,1,2.9-2.517c.725.812,1.405,1.664,2.129,2.478a1.957,1.957,0,0,0,2.792.4,1.914,1.914,0,0,0,.072-2.889c-1.059-1.268-2.155-2.505-3.218-3.77-.959-1.141-.96-2.315-.035-3.071.9-.733,2-.531,2.941.554,1.13,1.307,2.223,2.646,3.38,3.928a1.874,1.874,0,0,0,3.19-.279,2.071,2.071,0,0,0-.526-2.459q-5.4-6.278-10.783-12.571c-1.678-1.957-3.361-3.911-5.092-5.925-.453.382-.824.691-1.191,1-2.485,2.121-4.947,4.269-7.46,6.356a5.741,5.741,0,1,1-7.375-8.8c1.613-1.407,3.246-2.791,4.87-4.186l2.314-1.99c-1.191-.32-2.217-.536-3.2-.878a1.993,1.993,0,0,0-2.207.478C26.38,70.99,21.381,75.256,16.4,79.538c-.329.283-.65.575-1.059.937.814.485.8,1.759,2.087,1.492a5.67,5.67,0,0,1,7.108,5.044c.031.215.073.428.105.616a5.812,5.812,0,0,1,4.893,5.25.961.961,0,0,0,.533.672c2.881.788,4.252,2.757,4.49,5.639M52.707,59.434,72.149,82.1l8.69-7.449L61.4,51.97l-8.691,7.464M25.044,51.969,3.911,70.095l7.459,8.7L32.486,60.666l-7.442-8.7M67.981,83.157C62.847,77.171,57.817,71.3,52.762,65.443a1.339,1.339,0,0,0-.955-.38c-2.1.1-4.2.2-6.29.413a3.519,3.519,0,0,0-1.8.76c-3.849,3.239-7.656,6.529-11.472,9.808-1.17,1.006-1.368,2.1-.567,3.013.752.857,1.887.84,2.985-.093,2.432-2.066,4.849-4.151,7.272-6.227,1.34-1.148,2.668-2.311,4.026-3.438a1.777,1.777,0,0,1,2.379-.1,1.625,1.625,0,0,1,.635,2.174c-.455.788-.14,1.2.331,1.74,2.655,3.065,5.285,6.153,7.925,9.231,1.631,1.9,3.265,3.8,4.962,5.773l5.794-4.962M14.61,13.423H21.1v-6.5l-6.494,6.5M30.667,99.2a1.9,1.9,0,0,0-1.88-1.956,1.9,1.9,0,1,0,.006,3.8A1.878,1.878,0,0,0,30.667,99.2m4.969,5.728a1.853,1.853,0,0,0-1.849-1.855,1.92,1.92,0,0,0-1.929,1.917,1.956,1.956,0,0,0,1.878,1.872,1.89,1.89,0,0,0,1.9-1.934M25.692,93.355a1.9,1.9,0,0,0-1.811-1.908A1.932,1.932,0,0,0,21.9,93.318,1.885,1.885,0,0,0,23.729,95.2a1.86,1.86,0,0,0,1.962-1.849m-4.969-5.891a1.875,1.875,0,0,0-2.008-1.814,1.874,1.874,0,1,0,2.008,1.814" fill="#007176"/>
    <path id="Path_12054" data-name="Path 12054" d="M207.68,88.887c-3.116,0-6.232.018-9.348-.005-1.5-.011-2.35-.924-2.149-2.226.158-1.021.923-1.6,2.232-1.612,2.853-.018,5.707-.006,8.56-.006,3.266,0,6.534-.049,9.8.04a3.119,3.119,0,0,1,2.027.881,1.919,1.919,0,0,1,.118,1.828,2.546,2.546,0,0,1-1.777,1.051c-3.15.1-6.306.048-9.459.049" transform="translate(-151.825 -65.809)" fill="#007176"/>
    <path id="Path_12055" data-name="Path 12055" d="M207.717,157.221c-2.966,0-5.932.006-8.9-.006a4.6,4.6,0,0,1-1.332-.148,1.885,1.885,0,0,1,.27-3.649,6.019,6.019,0,0,1,1.01-.048q8.9,0,17.8,0a6.126,6.126,0,0,1,1.122.059,1.766,1.766,0,0,1,1.52,1.712,1.73,1.73,0,0,1-1.157,1.87,4.126,4.126,0,0,1-1.434.2c-2.966.017-5.932.009-8.9.009" transform="translate(-151.851 -118.708)" fill="#007176"/>
    <path id="Path_12056" data-name="Path 12056" d="M162.127,119.185c2.212,0,4.426-.038,6.637.013a1.889,1.889,0,0,1,1.943,2.562,1.809,1.809,0,0,1-1.815,1.259c-4.462.019-8.924.033-13.386,0a1.842,1.842,0,0,1-1.947-1.9,1.878,1.878,0,0,1,2.044-1.92c2.174-.043,4.349-.012,6.524-.012" transform="translate(-118.856 -92.24)" fill="#007176"/>
    <path id="Path_12057" data-name="Path 12057" d="M162.135,187.444c2.138,0,4.275-.009,6.413,0,1.422.008,2.3.753,2.293,1.907s-.888,1.926-2.3,1.931q-6.357.02-12.714,0c-1.419,0-2.273-.762-2.272-1.939,0-1.2.815-1.89,2.278-1.9,2.1-.012,4.2,0,6.3,0" transform="translate(-118.854 -145.081)" fill="#007176"/>
    <path id="Path_12058" data-name="Path 12058" d="M80.617,159.983c1.413-1.881,2.777-3.712,4.159-5.53.845-1.111,1.992-1.374,2.9-.7.932.691,1.02,1.848.181,2.979q-2.677,3.613-5.39,7.2a1.943,1.943,0,0,1-3.251.224c-.515-.491-1.016-1-1.508-1.513a1.922,1.922,0,0,1-.28-2.8c.717-.83,1.718-.867,2.8-.1.09.064.186.12.385.247" transform="translate(-59.555 -118.722)" fill="#007176"/>
    <path id="Path_12059" data-name="Path 12059" d="M80.619,91.769c1.4-1.866,2.748-3.671,4.106-5.467.913-1.208,2.02-1.469,2.977-.72.916.718.976,1.831.117,2.989Q85.2,92.1,82.548,95.607c-1.054,1.387-2.177,1.461-3.4.269-.485-.472-.964-.949-1.432-1.437-.932-.97-1.028-1.954-.287-2.8s1.689-.876,2.811-.1c.091.062.186.117.382.238" transform="translate(-59.548 -65.916)" fill="#007176"/>
    <path id="Path_12060" data-name="Path 12060" d="M156.379,88.918c-1.963.02-2.827-.569-2.821-1.9s.907-1.933,2.841-1.929a7.565,7.565,0,0,1,1.231.052,1.855,1.855,0,0,1,1.64,1.951,1.83,1.83,0,0,1-1.769,1.82c-.371.035-.748.006-1.122.006" transform="translate(-118.855 -65.859)" fill="#007176"/>
    <path id="Path_12061" data-name="Path 12061" d="M156.493,153.423a8.379,8.379,0,0,1,1.12.008,1.728,1.728,0,0,1,1.631,1.7,1.683,1.683,0,0,1-1.423,1.978,9.5,9.5,0,0,1-2.673.046,1.8,1.8,0,0,1-1.6-1.974,1.849,1.849,0,0,1,1.823-1.774c.371-.032.748,0,1.122,0v.017" transform="translate(-118.846 -118.73)" fill="#007176"/>
  </g>
</svg>
