<svg id="Group_303" data-name="Group 303" xmlns="http://www.w3.org/2000/svg" xmlns:xlink="http://www.w3.org/1999/xlink" width="116.815" height="115.481" viewBox="0 0 116.815 115.481">
  <defs>
    <clipPath id="clip-path">
      <rect id="Rectangle_241" data-name="Rectangle 241" width="116.815" height="115.481" fill="#007176"/>
    </clipPath>
  </defs>
  <g id="Group_302" data-name="Group 302" clip-path="url(#clip-path)">
    <path id="Path_12062" data-name="Path 12062" d="M9.167,0H67.781a3.617,3.617,0,0,0,.529.191,10.41,10.41,0,0,1,8.334,12.458A28.756,28.756,0,0,1,75.3,16.42h1.222c5.7,0,11.4-.052,17.094.024a10.466,10.466,0,0,1,10.171,9.664,10.358,10.358,0,0,1-8.7,11.075,53.259,53.259,0,0,1-6.362.217c-.386.01-.773,0-1.193,0a3.247,3.247,0,0,0,2.373,2.353c13.47,4.706,22.13,13.944,25.784,27.769.53,2.006.757,4.091,1.125,6.14v5.7c-.3,1.863-.477,3.758-.932,5.583-3.676,14.742-12.714,24.725-27.3,28.887-14.424,4.115-27.229.412-38.06-9.972a2.466,2.466,0,0,0-1.877-.8c-8.626.027-17.253.067-25.878,0a10.371,10.371,0,0,1-9.818-13.723c.641-1.831,1.97-3.421,3.013-5.173-4.566-4.02-5.191-11.23.222-16.212a10.728,10.728,0,0,1,.082-16.479c-.221-.2-.447-.393-.659-.6a10.392,10.392,0,0,1,2.889-17.023,15.126,15.126,0,0,1,4.738-.979c1.778-.163,3.582-.037,5.52-.037a10.81,10.81,0,0,1-.014-11.859H27.366c-5.7,0-11.4.1-17.1-.041A9.872,9.872,0,0,1,.886,14.491,10.012,10.012,0,0,1,2.86,3.375,11.318,11.318,0,0,1,9.167,0M112.252,76.652A34.209,34.209,0,1,0,77.99,110.836a34.262,34.262,0,0,0,34.262-34.185M38.526,4.561q-13.909,0-27.817,0a5.925,5.925,0,1,0-.048,11.847c7.22.027,14.441.008,21.661.008q16.816,0,33.631.009a6.31,6.31,0,0,0,4.32-1.455,5.923,5.923,0,0,0-3.93-10.407q-13.908-.022-27.817-.006m26.98,16.421c-9.348,0-18.7-.017-28.045.009a5.918,5.918,0,0,0-.071,11.836q27.988.036,55.976.008A5.7,5.7,0,0,0,97.3,31.287a5.923,5.923,0,0,0-4.093-10.3q-13.852-.019-27.7,0M80.453,38.037q.008-.222.015-.445c-.809-.063-1.617-.181-2.426-.182q-21.948-.017-43.9-.008c-3.762,0-7.525-.019-11.288.008a5.924,5.924,0,1,0,.171,11.845c8.779.021,17.559,0,26.338.023a2.8,2.8,0,0,0,2.106-.821A37.737,37.737,0,0,1,74.6,38.061c1.939-.164,3.9-.024,5.858-.024M40.439,65.667l5.833-11.845h-.735c-7.668,0-15.337-.04-23,.031a5.9,5.9,0,0,0-.107,11.784c6.108.1,12.219.03,18.014.03M40.2,86.675c-5.745,0-11.747-.071-17.746.035a5.433,5.433,0,0,0-5.073,3.641,5.892,5.892,0,0,0,5.586,8.163c7.37.03,14.741.009,22.111.007.249,0,.5-.02.551-.023L40.2,86.675m-.7-16.4a2.053,2.053,0,0,0-.312-.031c-5.468,0-10.936-.013-16.4.012a6.08,6.08,0,0,0-1.89.338,5.906,5.906,0,0,0,1.847,11.49c5.392.042,10.783.014,16.175.011a4.464,4.464,0,0,0,.583-.066Z" transform="translate(0)" fill="#007176"/>
    <path id="Path_12063" data-name="Path 12063" d="M311.516,286.718c-.154,2.249-.9,3.246-2.358,3.234-1.43-.012-2.122-.952-2.334-3.246a10.161,10.161,0,0,1-4.971-2.942,8.318,8.318,0,0,1-2.239-5.462,2.292,2.292,0,0,1,2.207-2.524,2.315,2.315,0,0,1,2.34,2.3,4.578,4.578,0,0,0,3.959,4.211,5.2,5.2,0,0,0,5.689-2.613c1.152-2.459-.505-5.283-3.465-5.825-1.153-.211-2.351-.2-3.493-.448a9.029,9.029,0,0,1-7.234-8.057,8.842,8.842,0,0,1,6.3-8.881c.7-.239,1.037-.488,1.012-1.315a2.255,2.255,0,1,1,4.5-.085c-.031.931.4,1.176,1.146,1.451a8.859,8.859,0,0,1,6.1,7.164,5.281,5.281,0,0,1,.074,1.134,2.233,2.233,0,0,1-2.138,2.234,2.168,2.168,0,0,1-2.382-2.082,4.371,4.371,0,0,0-2.839-4.042,5.321,5.321,0,0,0-5.5.624,3.916,3.916,0,0,0-1.6,4.2,4.779,4.779,0,0,0,4.081,3.326,24.6,24.6,0,0,1,3.818.55,8.686,8.686,0,0,1,.226,16.787l-.9.3" transform="translate(-231.142 -194.943)" fill="#007176"/>
    <path id="Path_12064" data-name="Path 12064" d="M403.354,245.331a29.027,29.027,0,0,1-3.131,12.263c-.85,1.7-2,2.27-3.321,1.629s-1.594-1.936-.787-3.609a24.876,24.876,0,0,0-5.4-29.614,60.39,60.39,0,0,0-5.728-4.069,4.93,4.93,0,0,1-1.582-1.664,1.922,1.922,0,0,1,.7-2.337,2.3,2.3,0,0,1,2.666-.2,29.772,29.772,0,0,1,9.321,7.178,30.41,30.41,0,0,1,7.258,20.422" transform="translate(-295.665 -167.721)" fill="#007176"/>
    <path id="Path_12065" data-name="Path 12065" d="M211.712,285.016a30.771,30.771,0,0,1,3.152-13.99c.858-1.707,1.993-2.268,3.32-1.628,1.31.632,1.6,1.938.789,3.606a24.841,24.841,0,0,0,5.4,29.609c1.7,1.583,3.842,2.677,5.727,4.069.637.47,1.417,1.095,1.569,1.775a3.016,3.016,0,0,1-.725,2.2,1.886,1.886,0,0,1-2.515.26,48.705,48.705,0,0,1-6.077-3.974,28.875,28.875,0,0,1-10.637-21.927" transform="translate(-163.333 -207.639)" fill="#007176"/>
    <path id="Path_12066" data-name="Path 12066" d="M351.247,207.907a2.344,2.344,0,1,1-2.323-2.3,2.306,2.306,0,0,1,2.323,2.3" transform="translate(-267.367 -158.624)" fill="#007176"/>
    <path id="Path_12067" data-name="Path 12067" d="M318.349,445.137a2.278,2.278,0,1,1-2.354,2.265,2.3,2.3,0,0,1,2.354-2.265" transform="translate(-243.786 -343.418)" fill="#007176"/>
  </g>
</svg>
