<svg id="Group_299" data-name="Group 299" xmlns="http://www.w3.org/2000/svg" xmlns:xlink="http://www.w3.org/1999/xlink" width="108.986" height="115.481" viewBox="0 0 108.986 115.481">
  <defs>
    <clipPath id="clip-path">
      <rect id="Rectangle_239" data-name="Rectangle 239" width="108.986" height="115.481" fill="#007176"/>
    </clipPath>
  </defs>
  <g id="Group_298" data-name="Group 298" clip-path="url(#clip-path)">
    <path id="Path_12048" data-name="Path 12048" d="M107.611,32.57c-1.261-1.489-2.438-3.051-3.667-4.567-2.8-3.452-6.752-3.914-10.233-1.2-2.074,1.616-4.085,3.309-6.136,4.953-.311.249-.6.756-1.009.592-.439-.177-.2-.734-.245-1.126a7.757,7.757,0,0,1,0-.788q0-13.461,0-26.922a10,10,0,0,0-.054-1.574A2.071,2.071,0,0,0,84.349.043,8.133,8.133,0,0,0,83.112.005Q43.058,0,3,0c-.225,0-.451-.005-.676,0C.653.055.064.643,0,2.327Q0,57.7,0,113.078c.066,1.619.268,1.907,1.687,2.4H84.4c1.467-.392,1.851-.886,1.908-2.46.015-.413.007-.826.007-1.239q0-19.656,0-39.312c0-4.055.013-8.11-.009-12.165a2.626,2.626,0,0,1,1.027-2.234q6.35-5.224,12.6-10.563c2.282-1.954,4.656-3.795,6.962-5.719,2.574-2.148,2.713-6.854.712-9.218m-27.06,78.423q-37.467-.034-74.934,0c-.826,0-1.046-.173-1.046-1.029q.038-52.16,0-104.32c0-.826.171-1.047,1.029-1.046q37.467.04,74.934,0c.938,0,1.065.31,1.063,1.127q-.037,15.152,0,30.3a2.054,2.054,0,0,1-.824,1.811c-3.041,2.448-6.047,4.938-9.047,7.436-.508.423-.833.742-1.307-.082a2.106,2.106,0,0,0-1.986-.838c-6.348,0-12.7-.012-19.043.006a2.321,2.321,0,0,0-2.6,2.222c-.028,1.356,1,2.269,2.633,2.272q8.783.016,17.564,0c.14.4-.2.468-.376.612-1.7,1.418-3.426,2.809-5.116,4.24a2.585,2.585,0,0,1-1.819.667q-5.408-.053-10.817,0a2.2,2.2,0,0,0-2.3,2.137,2.271,2.271,0,0,0,2.029,2.308,7.557,7.557,0,0,0,1.123.047c1.726,0,3.451,0,5.465,0-.563.48-.936.808-1.319,1.124q-4.649,3.832-9.306,7.654a4.34,4.34,0,0,0-1.223,1.578c-1.167,2.512-2.379,5-3.531,7.522-.267.583-.471.82-1.127.461a2.873,2.873,0,0,0-1.318-.192Q28.848,77,20.34,77.008c-2.029,0-2.843.834-2.845,2.89q-.006,8.449,0,16.9c0,2.03.836,2.865,2.877,2.868q8.451.01,16.9,0c2.04,0,2.867-.828,2.876-2.866.011-2.666.035-5.333-.019-8-.015-.729.183-1.056.893-1.231,3.455-.849,6.9-1.747,10.351-2.606a5.611,5.611,0,0,1,1.334-.13q7.55-.013,15.1-.006c.3,0,.6.013.9-.009a2.225,2.225,0,0,0,2.219-2.336,2.166,2.166,0,0,0-2.269-2.153c-2.328-.028-4.657-.009-6.986-.009H60.308L81.37,62.658c.324.352.206.7.206,1.008q.011,23.151.029,46.3c0,.87-.24,1.025-1.054,1.024M46.1,73.929l5.166,6.382L41.963,82.7l4.14-8.77M35.654,94.372c0,.547-.1.806-.736.8q-6.081-.039-12.163,0c-.59,0-.776-.17-.766-.764.032-2.026.012-4.053.012-6.08,0-1.952.025-3.9-.014-5.855-.014-.686.1-.989.9-.98,3.979.042,7.958.032,11.938.006.638,0,.836.183.832.825q-.038,6.024,0,12.048M96.767,43.856Q84.817,53.882,72.863,63.9q-8.241,6.912-16.469,13.838c-.646.547-.973.607-1.539-.126-1.787-2.318-3.643-4.584-5.521-6.83-.489-.585-.491-.859.128-1.366Q62.442,58.787,75.376,48.1C80.3,44.04,85.24,40,90.135,35.9c.674-.564.956-.486,1.457.16,1.726,2.224,3.514,4.4,5.278,6.592.161.2.31.409.49.646-.216.2-.4.389-.592.554m6.7-5.477c-.824.692-1.705,1.84-2.545,1.825-.69-.012-1.368-1.424-2.029-2.235-1.326-1.628-2.617-3.284-3.965-4.893-.4-.475-.45-.752.091-1.134.7-.5,1.348-1.075,2.024-1.61a1.786,1.786,0,0,1,1.183-.483,1.874,1.874,0,0,1,1.594.766c1.318,1.634,2.648,3.259,3.942,4.912a1.836,1.836,0,0,1-.3,2.851" transform="translate(0 0)" fill="#007176"/>
    <path id="Path_12049" data-name="Path 12049" d="M88.04,50.756h26.813c2.606,0,3.24.64,3.24,3.266,0,3,.01,6.007,0,9.011-.008,1.97-.774,2.743-2.715,2.747q-6.027.014-12.054,0c-1.635,0-2.661-.892-2.653-2.252s1.058-2.244,2.677-2.249c3.079-.009,6.159-.042,9.237.022.887.019,1.063-.258,1.022-1.067a35.841,35.841,0,0,1,0-3.94c.051-.868-.244-1.053-1.072-1.05q-14.984.043-29.967.019c-6.346,0-12.693.018-19.039-.021-.859-.005-1.1.23-1.05,1.068a35.019,35.019,0,0,1,0,3.94c-.049.84.186,1.054,1.037,1.049,6.2-.041,12.392-.022,18.589-.021a9.333,9.333,0,0,1,1.013.016A2.236,2.236,0,0,1,85.2,63.652,2.165,2.165,0,0,1,83,65.763c-2.365.041-4.731.019-7.1.02q-7.492,0-14.984,0c-2.243,0-2.926-.7-2.929-2.981q-.005-4.505,0-9.011c0-2.33.692-3.032,3.014-3.033q13.519-.007,27.038,0" transform="translate(-44.874 -39.279)" fill="#007176"/>
    <path id="Path_12050" data-name="Path 12050" d="M218.959,408.015q-4.789,0-9.578,0a2.259,2.259,0,0,1-2.209-1.268,2.125,2.125,0,0,1,.169-2.242,2.454,2.454,0,0,1,2.26-1q4.113.005,8.226,0c3.531,0,7.062-.01,10.593,0,1.491.006,2.408.664,2.61,1.8.276,1.55-.732,2.677-2.493,2.692-3.193.027-6.385.008-9.578.007" transform="translate(-160.139 -312.266)" fill="#007176"/>
    <path id="Path_12051" data-name="Path 12051" d="M205.239,101.783a2.245,2.245,0,1,1-.11-4.489,2.267,2.267,0,0,1,2.283,2.258,2.206,2.206,0,0,1-2.173,2.231" transform="translate(-157.037 -75.294)" fill="#007176"/>
    <path id="Path_12052" data-name="Path 12052" d="M100,179.755c0-1.912-.854-2.75-2.746-2.756-2.853-.009-5.706,0-8.559,0s-5.706-.005-8.559,0c-1.924,0-2.785.835-2.788,2.717q-.013,8.613,0,17.227c0,1.824.854,2.7,2.69,2.7q8.615.027,17.231,0c1.895-.005,2.726-.86,2.73-2.776q.018-8.557,0-17.115m-4.49,14.587c0,.659-.225.818-.846.815q-5.968-.035-11.936,0c-.681,0-.91-.165-.893-.875.048-1.988.017-3.977.017-5.966,0-1.951.024-3.9-.013-5.854-.013-.675.084-.99.891-.981,3.978.045,7.957.032,11.936.008.618,0,.848.145.843.805q-.041,6.022,0,12.046" transform="translate(-59.854 -136.973)" fill="#007176"/>
  </g>
</svg>
