<?xml version="1.0" encoding="utf-8"?>
<!-- Generator: Adobe Illustrator 22.0.0, SVG Export Plug-In . SVG Version: 6.00 Build 0)  -->
<svg version="1.1" id="Layer_1" xmlns="http://www.w3.org/2000/svg" xmlns:xlink="http://www.w3.org/1999/xlink" x="0px" y="0px"
	 viewBox="0 0 250 50" style="enable-background:new 0 0 250 50;" xml:space="preserve">
<style type="text/css">
	.st0{fill:#00AAB2;}
	.st1{fill:url(#SVGID_1_);}
	.st2{fill:#14DBDB;}
	.st3{fill:#AAF2E6;}
	.st4{fill:#FFC9C2;}
	.st5{fill:url(#SVGID_2_);}
	.st6{fill:none;stroke:url(#SVGID_3_);stroke-width:0.4084;stroke-miterlimit:10;}
	.st7{fill:#00AAB1;}
	.st8{enable-background:new    ;}
	.st9{fill:#00434C;}
</style>
<g id="a">
</g>
<g>
	<g id="b">
		<g id="c">
			<g>
				<path class="st0" d="M22.2,8.4C13.1,8.4,5.6,15.9,5.6,25c0,3.8,1.2,7.2,3.3,9.9h4.8C10.9,32.5,9.1,29,9.1,25
					c0-7.2,5.8-13.1,13.1-13.1S35.3,17.8,35.3,25c0,2.5-0.7,4.8-1.9,6.7l3,1.8c1.5-2.5,2.4-5.4,2.4-8.5C38.8,15.8,31.4,8.4,22.2,8.4
					L22.2,8.4z"/>
				
					<linearGradient id="SVGID_1_" gradientUnits="userSpaceOnUse" x1="39.7855" y1="709.614" x2="6.9168" y2="737.6849" gradientTransform="matrix(1 0 0 1 0 -699.56)">
					<stop  offset="0" style="stop-color:#37F4EF"/>
					<stop  offset="0.11" style="stop-color:#30EFEA"/>
					<stop  offset="0.26" style="stop-color:#1CE1DE"/>
					<stop  offset="0.43" style="stop-color:#00CDCC"/>
					<stop  offset="0.48" style="stop-color:#00B8BB"/>
					<stop  offset="0.58" style="stop-color:#00939B"/>
					<stop  offset="0.68" style="stop-color:#007885"/>
					<stop  offset="0.76" style="stop-color:#006777"/>
					<stop  offset="0.83" style="stop-color:#006273"/>
					<stop  offset="0.84" style="stop-color:#006070"/>
					<stop  offset="0.9" style="stop-color:#004D59"/>
					<stop  offset="0.95" style="stop-color:#00424B"/>
					<stop  offset="1" style="stop-color:#003F47"/>
				</linearGradient>
				<path class="st1" d="M16.3,27.1v-8.6c1.3,0.8,2.5,0.8,3.9,0V23c2,0,3.9-0.1,5.8,0c0.8,0.1,1.7,0.2,2.5,0.5
					c2.6,1.1,3.9,3.9,3.4,6.6c-0.5,2.6-2.9,4.7-5.6,4.7c-7.7,0.1-15.4,0-23.1,0.1c-0.6,0-0.7-0.3-0.8-0.7C-1.9,25.1,0.7,14,8.7,7.8
					C15.5,2.7,23.1,1.6,30.9,5c7.9,3.5,12.3,9.8,13.1,18.4c1.1,11.3-7.4,21.8-18.7,23.3c-7.5,1-13.8-1.3-19.1-6.7
					c-0.3-0.3-0.5-0.6-0.7-0.8c0-0.1,0-0.1,0-0.2c1.7,0,3.5,0,5.3,0c0.2,0,0.4,0.2,0.6,0.3c11,8.3,26.4,2.1,28.6-11.6
					c1.4-8.8-4.2-17.4-13-19.9C18.3,5.4,9.1,10,5.7,18.2c-1.6,3.9-1.8,8-0.6,12.1c0.2,0.6,0.4,0.7,1,0.7c6.6,0,13.1,0,19.7,0
					c1.5,0,2.4-0.8,2.2-2.1C28,27.6,27.2,27,25.9,27c-2.6,0-5.3,0-8,0C17.4,27.1,16.9,27.1,16.3,27.1L16.3,27.1z"/>
				<path class="st2" d="M36.1,42l-2.9-2.9c3.4-2.6,5.8-6.6,6.6-11.4c1-6.4-1.7-12.7-6.6-16.6l2.9-2.9c4.7,3.6,7.2,8.8,7.8,15.2
					C44.7,30.7,41.5,37.5,36.1,42L36.1,42z"/>
				<path class="st3" d="M36.1,42c-3,2.5-6.7,4.2-10.8,4.8c-7.5,1-13.8-1.3-19.1-6.7c-0.3-0.3-0.5-0.6-0.7-0.8c0-0.1,0-0.1,0-0.2
					c1.7,0,3.5,0,5.2,0c0.2,0,0.4,0.2,0.6,0.3c7.1,5.3,15.9,4.7,22-0.1L36.1,42L36.1,42z"/>
				<g>
					<path class="st4" d="M23.1,13.5c0,2.5-2,4.5-4.6,4.5c-2.6,0-4.5-1.9-4.5-4.5c0-2.5,2-4.5,4.6-4.5C21,8.9,23.1,11,23.1,13.5
						L23.1,13.5z"/>
					
						<linearGradient id="SVGID_2_" gradientUnits="userSpaceOnUse" x1="7.5298" y1="742.8337" x2="16.6504" y2="742.8337" gradientTransform="matrix(0.9999 -1.134440e-02 1.134440e-02 0.9999 -2.0438 -729.1187)">
						<stop  offset="3.000000e-02" style="stop-color:#611403"/>
						<stop  offset="0.49" style="stop-color:#D12B15"/>
						<stop  offset="0.58" style="stop-color:#DA4631"/>
						<stop  offset="0.87" style="stop-color:#F49684"/>
						<stop  offset="1" style="stop-color:#FFB6A6"/>
					</linearGradient>
					<path class="st5" d="M23,13.4l-4.7,0.1l0.1,4.5c-2.6,0-4.5-1.9-4.5-4.5c0-2.5,2-4.5,4.6-4.5C21,8.9,23,10.9,23,13.4z"/>
				</g>
				
					<linearGradient id="SVGID_3_" gradientUnits="userSpaceOnUse" x1="12.7929" y1="737.3577" x2="25.8473" y2="722.5806" gradientTransform="matrix(1 0 0 1 0 -699.56)">
					<stop  offset="0" style="stop-color:#39FF14;stop-opacity:0"/>
					<stop  offset="0.4" style="stop-color:#39FF14;stop-opacity:0"/>
					<stop  offset="0.43" style="stop-color:#39FF14;stop-opacity:0.11"/>
					<stop  offset="0.51" style="stop-color:#39FF14;stop-opacity:0.34"/>
					<stop  offset="0.59" style="stop-color:#39FF14;stop-opacity:0.54"/>
					<stop  offset="0.66" style="stop-color:#39FF14;stop-opacity:0.71"/>
					<stop  offset="0.74" style="stop-color:#39FF14;stop-opacity:0.84"/>
					<stop  offset="0.81" style="stop-color:#39FF14;stop-opacity:0.93"/>
					<stop  offset="0.88" style="stop-color:#39FF14;stop-opacity:0.98"/>
					<stop  offset="0.93" style="stop-color:#39FF14"/>
				</linearGradient>
				<path class="st6" d="M18.2,19.1V25h9c2.1,0.8,3.3,2.9,2.9,4.8c-0.3,1.5-1.4,2.7-2.9,3.2H7.5"/>
			</g>
		</g>
	</g>
	<g>
		<g>
			<path class="st7" d="M65.1,8.7c1,0,1.9,0.2,2.6,0.6c0.8,0.4,1.5,0.9,2,1.5c0.5,0.6,0.8,1.4,1.1,2.3c0.2,0.8,0.2,1.8-0.1,2.8
				c-0.2,1-0.6,1.9-1.2,2.8c-0.6,0.8-1.2,1.6-2,2.3c-0.8,0.7-1.7,1.2-2.6,1.5c-1,0.4-1.9,0.6-2.9,0.6c-1,0-1.9-0.2-2.6-0.6
				c-0.8-0.4-1.5-0.9-2-1.5c-0.5-0.6-0.8-1.4-1.1-2.3c-0.2-0.8-0.2-1.8,0.1-2.8c0.1-0.6,0.3-1.2,0.6-1.8h3.8
				c-0.4,0.6-0.7,1.1-0.8,1.8s-0.1,1.2,0.1,1.8c0.2,0.6,0.6,1,1,1.3c0.4,0.3,1,0.5,1.7,0.5c0.7,0,1.3-0.2,1.9-0.5
				c0.6-0.3,1.1-0.7,1.6-1.3c0.4-0.6,0.7-1.1,0.8-1.8s0.1-1.2-0.1-1.8s-0.6-1-1-1.3c-0.4-0.3-1.1-0.5-1.7-0.5h-6.2
				c0.6-0.7,1.2-1.3,2-1.9c0.7-0.5,1.5-1,2.4-1.2C63.4,8.9,64.3,8.7,65.1,8.7z"/>
			<path class="st7" d="M85.4,8.7c0.7,0,1.3,0.2,1.7,0.5c0.4,0.3,0.8,0.8,1.1,1.3c0.2,0.6,0.2,1.2,0.1,1.9L87.9,14
				c-0.2,0.7-0.4,1.3-0.9,1.9c-0.4,0.6-1,1-1.6,1.3c-0.6,0.3-1.3,0.5-2,0.5h-7l-1.1,5.4h-3.6l1.9-9h3.6l0,0h6.4
				c0.2,0,0.4-0.1,0.6-0.2c0.2-0.2,0.3-0.3,0.3-0.6l0.1-0.2c0.1-0.2,0-0.4-0.1-0.6c-0.1-0.2-0.3-0.2-0.5-0.2H74l0.8-3.6H85.4z"/>
			<path class="st7" d="M88.4,23l3-14.3H95L92,23H88.4z"/>
			<path class="st7" d="M106,17.7l1.9-8.9h3.6l-3,14.3h-3.6l-5.3-8.9l-0.8,3.6l-0.4,1.8l-0.8,3.6h-3.6l0.8-3.6l0.4-1.8l1.9-8.9h3.6
				L106,17.7z"/>
			<path class="st7" d="M110.9,23l3-14.3h3.6l-3,14.3H110.9z"/>
			<path class="st7" d="M126.9,8.7c1,0,1.9,0.2,2.6,0.6c0.8,0.4,1.5,0.9,2,1.5c0.5,0.7,0.8,1.4,1.1,2.3c0.2,0.8,0.2,1.8-0.1,2.8
				c-0.2,1-0.6,1.9-1.2,2.8c-0.6,0.8-1.2,1.6-2,2.3c-0.8,0.7-1.7,1.2-2.6,1.5c-1,0.4-1.9,0.6-2.9,0.6s-1.9-0.2-2.6-0.6
				c-0.8-0.4-1.5-0.9-2-1.5c-0.5-0.6-0.8-1.4-1.1-2.3c-0.2-0.8-0.2-1.8,0.1-2.8c0.1-0.6,0.3-1.2,0.6-1.8h3.8
				c-0.4,0.6-0.7,1.1-0.8,1.8s-0.1,1.2,0.1,1.8c0.2,0.6,0.6,1,1,1.3c0.4,0.3,1,0.5,1.7,0.5s1.3-0.2,1.9-0.5c0.6-0.3,1.1-0.7,1.6-1.3
				c0.4-0.6,0.7-1.1,0.8-1.8s0.1-1.2-0.1-1.8s-0.6-1-1-1.3c-0.4-0.3-1.1-0.5-1.7-0.5H120c0.6-0.7,1.2-1.3,2-1.9
				c0.7-0.5,1.5-1,2.4-1.2C125.2,8.9,126,8.7,126.9,8.7z"/>
			<path class="st7" d="M145.4,17.7l1.9-8.9h3.6l-3,14.3h-3.6l-5.3-8.9l-0.7,3.5l-0.4,1.8l-0.8,3.6h-3.6l0.8-3.6l0.4-1.8l1.9-9h3.6
				L145.4,17.7z"/>
			<path class="st7" d="M170,8.7c0.5,0,0.8,0.2,1.1,0.5c0.3,0.3,0.3,0.8,0.2,1.2l-0.8,3.6c-0.1,0.4-0.3,0.9-0.7,1.2
				c-0.4,0.3-0.8,0.5-1.3,0.6c-0.1,0-0.1,0-0.1,0h0.1c0.4,0,0.8,0.2,1.1,0.5s0.3,0.7,0.2,1.2l-0.8,3.8c-0.1,0.4-0.3,0.9-0.7,1.2
				c-0.4,0.3-0.8,0.5-1.3,0.5h-12.6l1.9-9h3.6l0,0h6.5c0.2,0,0.3-0.1,0.5-0.2c0.2-0.1,0.2-0.3,0.3-0.4l0.1-0.5
				c0.1-0.2,0-0.3-0.1-0.4c-0.1-0.1-0.2-0.2-0.4-0.2h-5.4l0,0h-4.7l0.8-3.6h2.6L170,8.7L170,8.7z M166.1,18.7l0.1-0.3
				c0.1-0.2,0-0.4-0.1-0.5c-0.1-0.2-0.3-0.2-0.5-0.2h-6.4l-0.4,1.8h6.4c0.2,0,0.4-0.1,0.6-0.2C165.8,19.1,166,18.9,166.1,18.7z"/>
			<path class="st7" d="M179.5,8.7h3.6l2.3,14.3h-3.6l-1.7-8.9l-5.4,8.9h-3.6L179.5,8.7z"/>
			<path class="st7" d="M201.5,8.7c0.7,0,1.2,0.2,1.7,0.5c0.5,0.3,0.8,0.8,1.1,1.3c0.2,0.6,0.2,1.2,0.1,1.9l-0.3,1.6
				c-0.2,0.7-0.4,1.3-0.9,1.9c-0.4,0.6-1,1-1.6,1.3c-0.6,0.3-1.3,0.5-2,0.5h-1.7l4.2,5.4h-5.4l-4.2-5.4l-1.1,5.4h-3.6l1.9-9h3.6l0,0
				h6.3c0.2,0,0.4-0.1,0.6-0.2c0.2-0.2,0.3-0.3,0.3-0.6l0.1-0.2c0.1-0.2,0-0.4-0.1-0.6c-0.1-0.2-0.3-0.2-0.5-0.2h-9.9l0.8-3.6h3.8
				l0,0H201.5z"/>
			<path class="st7" d="M218.3,8.7c0.7,0,1.2,0.2,1.7,0.5c0.5,0.3,0.8,0.8,1.1,1.3c0.2,0.6,0.2,1.2,0.1,1.9l-0.3,1.6
				c-0.2,0.7-0.4,1.3-0.9,1.9c-0.4,0.6-1,1-1.6,1.3c-0.6,0.3-1.3,0.5-2,0.5h-1.7l4.2,5.4h-5.4l-4.2-5.4l-1.1,5.4h-3.6l1.9-9h3.6l0,0
				h6.3c0.2,0,0.4-0.1,0.6-0.2c0.2-0.2,0.3-0.3,0.3-0.6l0.1-0.2c0.1-0.2,0-0.4-0.1-0.6c-0.1-0.2-0.3-0.2-0.5-0.2h-9.9l0.8-3.6h3.8
				l0,0H218.3z"/>
			<path class="st7" d="M221.3,23l1.9-8.9h14.3l-0.8,3.6h-10.7l-0.4,1.8h10.7l-0.8,3.6L221.3,23L221.3,23z M223.6,12.3l0.8-3.6h14.3
				l-0.8,3.6H223.6z"/>
			<path class="st7" d="M244.8,8.7l-2.3,10.7h7.1l-0.8,3.6h-7.7h-3l3-14.3H244.8z"/>
		</g>
	</g>
	<g class="st8">
		<path class="st9" d="M60.5,34.5c-0.7,0-1.2,0.3-1.6,0.8s-0.6,1.2-0.6,2.1c0,1.9,0.7,2.8,2.1,2.8c0.6,0,1.3-0.2,2.2-0.4v1.5
			c-0.7,0.3-1.5,0.4-2.4,0.4c-1.2,0-2.2-0.4-2.8-1.1c-0.6-0.7-1-1.8-1-3.2c0-0.9,0.2-1.6,0.5-2.3c0.3-0.7,0.8-1.2,1.4-1.5
			c0.6-0.3,1.3-0.5,2.1-0.5s1.6,0.2,2.5,0.6l-0.6,1.5c-0.3-0.2-0.6-0.3-1-0.4C61.2,34.5,60.9,34.5,60.5,34.5z"/>
		<path class="st9" d="M68.7,41.6l-0.3-0.9h-0.1c-0.3,0.4-0.6,0.6-0.9,0.8c-0.3,0.2-0.7,0.2-1.2,0.2c-0.6,0-1.1-0.2-1.5-0.5
			s-0.6-0.8-0.6-1.5c0-0.7,0.2-1.2,0.7-1.5c0.5-0.3,1.2-0.5,2.2-0.6l1.1-0.1v-0.3c0-0.7-0.3-1-1-1c-0.5,0-1.1,0.2-1.9,0.4l-0.6-1.2
			c0.7-0.4,1.6-0.6,2.5-0.6c0.8,0,1.5,0.2,2,0.6c0.4,0.4,0.7,1,0.7,1.7v4.3C70,41.6,68.7,41.6,68.7,41.6z M68.2,38.6h-0.7
			c-0.5,0-0.9,0.1-1.1,0.3S66,39.3,66,39.7c0,0.5,0.3,0.7,0.8,0.7c0.4,0,0.7-0.1,1-0.3c0.2-0.2,0.4-0.6,0.4-1L68.2,38.6L68.2,38.6z"
			/>
		<path class="st9" d="M76.5,39.7c0,0.7-0.2,1.2-0.7,1.5c-0.4,0.3-1.2,0.5-2.1,0.5c-0.4,0-0.9-0.1-1.2-0.1c-0.3-0.1-0.6-0.2-1-0.3
			v-1.5c0.3,0.2,0.7,0.3,1.1,0.4c0.4,0.1,0.8,0.2,1.1,0.2c0.6,0,1-0.2,1-0.6c0-0.1-0.1-0.2-0.1-0.3c-0.1-0.1-0.2-0.2-0.4-0.3
			c-0.2-0.1-0.5-0.2-0.8-0.4c-0.5-0.2-0.8-0.4-1.1-0.6c-0.2-0.2-0.4-0.4-0.5-0.6c-0.1-0.2-0.2-0.5-0.2-0.8c0-0.6,0.2-1,0.7-1.3
			c0.4-0.3,1.1-0.4,1.9-0.4c0.8,0,1.5,0.2,2.3,0.5L76,36.8c-0.3-0.1-0.6-0.3-0.9-0.3c-0.3-0.1-0.6-0.1-0.8-0.1
			c-0.5,0-0.8,0.2-0.8,0.4c0,0.2,0.1,0.3,0.2,0.4c0.2,0.1,0.6,0.3,1.1,0.5c0.5,0.2,0.9,0.4,1.1,0.6c0.2,0.2,0.4,0.4,0.5,0.6
			C76.5,39.1,76.5,39.4,76.5,39.7z"/>
		<path class="st9" d="M79.9,38.1l0.8-1l1.8-2h2l-2.6,2.8l2.7,3.6h-2l-1.9-2.6l-0.8,0.7v2h-1.7v-9h1.7v4L79.9,38.1L79.9,38.1z"/>
		<path class="st9" d="M91.8,36.6l1.8-3.5h1.9l-2.8,5.2v3.3h-1.8v-3.3l-2.8-5.2h2L91.8,36.6z"/>
		<path class="st9" d="M102.2,38.4c0,1.1-0.3,1.9-0.8,2.5c-0.6,0.6-1.3,0.9-2.3,0.9c-0.6,0-1.2-0.1-1.6-0.4s-0.8-0.7-1.1-1.2
			C96.1,39.7,96,39,96,38.4c0-1.1,0.3-1.9,0.8-2.5s1.3-0.9,2.4-0.9c0.6,0,1.2,0.1,1.6,0.4c0.4,0.3,0.8,0.7,1.1,1.2
			C102.1,37.1,102.2,37.7,102.2,38.4z M97.8,38.4c0,0.6,0.1,1.1,0.3,1.5s0.6,0.5,1,0.5c0.4,0,0.8-0.2,1-0.5s0.3-0.8,0.3-1.5
			c0-0.6-0.1-1.1-0.3-1.5c-0.2-0.3-0.6-0.5-1-0.5c-0.4,0-0.8,0.2-1,0.5S97.8,37.7,97.8,38.4z"/>
		<path class="st9" d="M108.5,41.6l-0.2-0.8h-0.1c-0.2,0.3-0.4,0.6-0.8,0.7c-0.3,0.2-0.7,0.2-1.2,0.2c-0.8,0-1.3-0.2-1.7-0.6
			c-0.4-0.4-0.6-1-0.6-1.7v-4.2h1.7v3.8c0,0.4,0.1,0.8,0.2,1.1c0.2,0.2,0.4,0.3,0.8,0.3c0.5,0,0.8-0.2,1.1-0.5s0.3-0.9,0.3-1.6v-3
			h1.8v6.5L108.5,41.6L108.5,41.6z"/>
		<path class="st9" d="M115.6,35c0.2,0,0.4,0,0.6,0.1l-0.1,1.7c-0.2-0.1-0.3-0.1-0.5-0.1c-0.6,0-1,0.2-1.3,0.4
			c-0.3,0.3-0.4,0.7-0.4,1.2v3.3h-1.7v-6.6h1.3l0.1,1.1h0.1c0.2-0.3,0.4-0.7,0.8-0.9C114.8,35.1,115.2,35,115.6,35z"/>
		<path class="st9" d="M128.7,37.4c0,1.4-0.3,2.5-1.1,3.3c-0.7,0.7-1.7,1.1-3,1.1c-1.3,0-2.3-0.4-3-1.1c-0.7-0.7-1.1-1.9-1.1-3.3
			s0.3-2.5,1.1-3.3c0.7-0.7,1.7-1.1,3-1.1c1.3,0,2.3,0.4,3,1.1S128.7,36,128.7,37.4z M122.6,37.4c0,1,0.2,1.7,0.6,2.1
			c0.3,0.5,0.9,0.7,1.6,0.7c1.5,0,2.1-1,2.1-2.9s-0.7-2.9-2.1-2.9c-0.7,0-1.2,0.2-1.6,0.7C122.7,35.7,122.6,36.4,122.6,37.4z"/>
		<path class="st9" d="M134.1,41.7c-0.8,0-1.3-0.3-1.8-0.8h-0.1c0.1,0.6,0.1,0.8,0.1,1v2.6h-1.7v-9.4h1.5l0.2,0.8h0.1
			c0.4-0.6,1-1,1.9-1c0.8,0,1.3,0.3,1.8,0.9s0.7,1.4,0.7,2.5c0,0.7-0.1,1.3-0.3,1.8c-0.2,0.5-0.5,0.9-0.8,1.2
			C135.1,41.6,134.6,41.7,134.1,41.7z M133.6,36.4c-0.4,0-0.7,0.1-1,0.4c-0.2,0.3-0.3,0.7-0.3,1.3v0.2c0,0.7,0.1,1.2,0.3,1.5
			c0.2,0.3,0.6,0.4,1,0.4c0.8,0,1.2-0.7,1.2-2c0-0.6-0.1-1.1-0.3-1.5C134.4,36.5,134,36.4,133.6,36.4z"/>
		<path class="st9" d="M138.2,33.4c0-0.6,0.3-0.8,1-0.8s1,0.3,1,0.8c0,0.3-0.1,0.5-0.2,0.6c-0.2,0.2-0.4,0.2-0.7,0.2
			C138.6,34.3,138.2,34,138.2,33.4z M140.1,41.6h-1.8v-6.5h1.7L140.1,41.6L140.1,41.6z"/>
		<path class="st9" d="M148.2,41.6h-1.7v-3.8c0-0.4-0.1-0.8-0.2-1.1c-0.2-0.2-0.4-0.3-0.8-0.3c-0.5,0-0.8,0.2-1.1,0.5
			s-0.3,0.9-0.3,1.6v3h-1.7v-6.5h1.3l0.2,0.8h0.1c0.2-0.3,0.4-0.6,0.8-0.7c0.3-0.2,0.7-0.2,1.2-0.2c0.7,0,1.3,0.2,1.7,0.6
			s0.6,1,0.6,1.7v4.3H148.2z"/>
		<path class="st9" d="M150.1,33.4c0-0.6,0.3-0.8,1-0.8c0.6,0,1,0.3,1,0.8c0,0.3-0.1,0.5-0.2,0.6c-0.2,0.2-0.4,0.2-0.7,0.2
			C150.4,34.3,150.1,34,150.1,33.4z M152,41.6h-1.7v-6.5h1.7V41.6z"/>
		<path class="st9" d="M159.9,38.4c0,1.1-0.3,1.9-0.8,2.5c-0.6,0.6-1.3,0.9-2.3,0.9c-0.6,0-1.2-0.1-1.6-0.4
			c-0.4-0.3-0.8-0.7-1.1-1.2s-0.4-1.1-0.4-1.8c0-1.1,0.3-1.9,0.8-2.5c0.6-0.6,1.3-0.9,2.4-0.9c0.6,0,1.2,0.1,1.6,0.4
			c0.4,0.3,0.8,0.7,1.1,1.2C159.8,37.1,159.9,37.7,159.9,38.4z M155.5,38.4c0,0.6,0.1,1.1,0.3,1.5s0.6,0.5,1,0.5
			c0.4,0,0.8-0.2,1-0.5c0.2-0.3,0.3-0.8,0.3-1.5c0-0.6-0.1-1.1-0.3-1.5c-0.2-0.3-0.6-0.5-1-0.5c-0.4,0-0.8,0.2-1,0.5
			C155.6,37.2,155.5,37.7,155.5,38.4z"/>
		<path class="st9" d="M167.6,41.6h-1.7v-3.8c0-0.4-0.1-0.8-0.2-1.1c-0.2-0.2-0.4-0.3-0.8-0.3c-0.5,0-0.8,0.2-1.1,0.5
			s-0.3,0.9-0.3,1.6v3h-1.7v-6.5h1.3l0.2,0.8h0.1c0.2-0.3,0.4-0.6,0.8-0.7c0.3-0.2,0.7-0.2,1.2-0.2c0.7,0,1.3,0.2,1.7,0.6
			c0.4,0.4,0.6,1,0.6,1.7v4.3H167.6z"/>
	</g>
</g>
</svg>
